<svg xmlns="http://www.w3.org/2000/svg" width="32" height="32" viewBox="0 0 32 32">
  <g id="Group_376" data-name="Group 376" transform="translate(23488 -8634)">
    <path id="linkedin-in-brands_1_" data-name="linkedin-in-brands(1)" d="M3.134,14.01H.231V4.663h2.9ZM1.681,3.388a1.689,1.689,0,1,1,1.681-1.7A1.7,1.7,0,0,1,1.681,3.388ZM14,14.01H11.1V9.46c0-1.084-.022-2.475-1.509-2.475-1.509,0-1.74,1.178-1.74,2.4V14.01h-2.9V4.663H7.736V5.938h.041a3.05,3.05,0,0,1,2.746-1.509C13.46,4.428,14,6.363,14,8.875V14.01Z" transform="translate(-23479 8641.99)" fill="#01b5b7"/>
    <g id="Ellipse_46" data-name="Ellipse 46" transform="translate(-23488 8634)" fill="none" stroke="#01b5b7" stroke-width="2">
      <circle cx="16" cy="16" r="16" stroke="none"/>
      <circle cx="16" cy="16" r="15" fill="none"/>
    </g>
  </g>
</svg>
