<svg xmlns="http://www.w3.org/2000/svg" width="1116" height="1116" viewBox="0 0 1116 1116">
  <g id="Path_546" data-name="Path 546" transform="translate(558) rotate(45)" fill="none">
    <path d="M394.565,0C612.478,0,789.131,176.653,789.131,394.565S612.478,789.131,394.565,789.131,0,612.478,0,394.565,176.653,0,394.565,0Z" stroke="none"/>
    <path d="M 394.5654296875 2 C 381.173828125 2 367.6687316894531 2.68194580078125 354.425537109375 4.02691650390625 C 341.3744201660156 5.35235595703125 328.2604370117188 7.353759765625 315.4477233886719 9.97564697265625 C 290.2437438964844 15.13311767578125 265.4522094726562 22.828857421875 241.7619018554688 32.84893798828125 C 218.501220703125 42.68743896484375 196.0661010742188 54.86480712890625 175.079833984375 69.0428466796875 C 154.2923583984375 83.08660888671875 134.7447509765625 99.21490478515625 116.9798583984375 116.9798583984375 C 99.21490478515625 134.7447509765625 83.08660888671875 154.2923583984375 69.0428466796875 175.079833984375 C 54.86480712890625 196.0661010742188 42.68743896484375 218.501220703125 32.84893798828125 241.7619018554688 C 22.828857421875 265.4522094726562 15.13311767578125 290.2437438964844 9.97564697265625 315.4477233886719 C 7.353759765625 328.2604370117188 5.35235595703125 341.3744201660156 4.02691650390625 354.425537109375 C 2.68194580078125 367.6687316894531 2 381.173828125 2 394.5654296875 C 2 407.9571228027344 2.68194580078125 421.4621276855469 4.02691650390625 434.7054443359375 C 5.35235595703125 447.7564392089844 7.353759765625 460.8704223632812 9.97564697265625 473.6832275390625 C 15.13311767578125 498.8872375488281 22.828857421875 523.6787109375 32.84893798828125 547.3690185546875 C 42.68743896484375 570.6297607421875 54.86480712890625 593.0648193359375 69.0428466796875 614.0511474609375 C 83.08660888671875 634.8385009765625 99.21490478515625 654.38623046875 116.9798583984375 672.151123046875 C 134.7447509765625 689.916015625 154.2923583984375 706.0443115234375 175.079833984375 720.0880126953125 C 196.0661010742188 734.26611328125 218.501220703125 746.4435424804688 241.7619018554688 756.2819213867188 C 265.4522094726562 766.302001953125 290.2437438964844 773.9977416992188 315.4477233886719 779.1552124023438 C 328.2604370117188 781.777099609375 341.3744201660156 783.7785034179688 354.425537109375 785.1039428710938 C 367.6687316894531 786.4489135742188 381.173828125 787.130859375 394.5654296875 787.130859375 C 407.9571228027344 787.130859375 421.4621276855469 786.4489135742188 434.7054443359375 785.1039428710938 C 447.7564392089844 783.7785034179688 460.8704223632812 781.777099609375 473.6832275390625 779.1552124023438 C 498.8872375488281 773.9977416992188 523.6787109375 766.302001953125 547.3690185546875 756.2819213867188 C 570.6297607421875 746.4435424804688 593.0648193359375 734.26611328125 614.0511474609375 720.0880126953125 C 634.8385009765625 706.0443115234375 654.38623046875 689.916015625 672.151123046875 672.151123046875 C 689.916015625 654.38623046875 706.0443115234375 634.8385009765625 720.0880126953125 614.0511474609375 C 734.26611328125 593.0648193359375 746.4435424804688 570.6297607421875 756.2819213867188 547.3690185546875 C 766.302001953125 523.6787109375 773.9977416992188 498.8872375488281 779.1552124023438 473.6832275390625 C 781.777099609375 460.8704223632812 783.7785034179688 447.7564392089844 785.1039428710938 434.7054443359375 C 786.4489135742188 421.4621276855469 787.130859375 407.9571228027344 787.130859375 394.5654296875 C 787.130859375 381.173828125 786.4489135742188 367.6687316894531 785.1039428710938 354.425537109375 C 783.7785034179688 341.3744201660156 781.777099609375 328.2604370117188 779.1552124023438 315.4477233886719 C 773.9977416992188 290.2437438964844 766.302001953125 265.4522094726562 756.2819213867188 241.7619018554688 C 746.4435424804688 218.501220703125 734.26611328125 196.0661010742188 720.0880126953125 175.079833984375 C 706.0443115234375 154.2923583984375 689.916015625 134.7447509765625 672.151123046875 116.9798583984375 C 654.38623046875 99.21490478515625 634.8385009765625 83.08660888671875 614.0511474609375 69.0428466796875 C 593.0648193359375 54.86480712890625 570.6297607421875 42.68743896484375 547.3690185546875 32.84893798828125 C 523.6787109375 22.828857421875 498.8872375488281 15.13311767578125 473.6832275390625 9.97564697265625 C 460.8704223632812 7.353759765625 447.7564392089844 5.35235595703125 434.7054443359375 4.02691650390625 C 421.4621276855469 2.68194580078125 407.9571228027344 2 394.5654296875 2 M 394.5654296875 0 C 612.4779052734375 0 789.130859375 176.6530151367188 789.130859375 394.5654296875 C 789.130859375 612.4779052734375 612.4779052734375 789.130859375 394.5654296875 789.130859375 C 176.6530151367188 789.130859375 0 612.4779052734375 0 394.5654296875 C 0 176.6530151367188 176.6530151367188 0 394.5654296875 0 Z" stroke="none" fill="#01b5b7"/>
  </g>
</svg>
