<svg xmlns="http://www.w3.org/2000/svg" width="878.588" height="878.588" viewBox="0 0 878.588 878.588">
  <g id="Path_545" data-name="Path 545" transform="translate(439.294) rotate(45)" fill="none">
    <path d="M310.628,0C482.183,0,621.256,139.073,621.256,310.628S482.183,621.256,310.628,621.256,0,482.183,0,310.628,139.073,0,310.628,0Z" stroke="none"/>
    <path d="M 310.6277770996094 2 C 289.6864624023438 2 268.7589416503906 4.109619140625 248.4263916015625 8.270263671875 C 228.6116333007812 12.324951171875 209.1212463378906 18.37506103515625 190.4965515136719 26.252685546875 C 172.20947265625 33.98748779296875 154.5714721679688 43.56109619140625 138.0724792480469 54.7076416015625 C 121.7296142578125 65.74853515625 106.361572265625 78.428466796875 92.39501953125 92.39501953125 C 78.428466796875 106.361572265625 65.74853515625 121.7296142578125 54.7076416015625 138.0724792480469 C 43.56109619140625 154.5714721679688 33.98748779296875 172.20947265625 26.252685546875 190.4965515136719 C 18.37506103515625 209.1212463378906 12.324951171875 228.6116333007812 8.270263671875 248.4263916015625 C 4.109619140625 268.7589416503906 2 289.6864624023438 2 310.6277770996094 C 2 331.569091796875 4.109619140625 352.4966125488281 8.270263671875 372.8291625976562 C 12.324951171875 392.6438598632812 18.37506103515625 412.1343383789062 26.252685546875 430.7590026855469 C 33.98748779296875 449.0460205078125 43.56109619140625 466.6840209960938 54.7076416015625 483.18310546875 C 65.74853515625 499.5258483886719 78.428466796875 514.8939819335938 92.39501953125 528.8605346679688 C 106.361572265625 542.8270874023438 121.7296142578125 555.5069580078125 138.0724792480469 566.5479125976562 C 154.5714721679688 577.6944580078125 172.20947265625 587.26806640625 190.4965515136719 595.0028686523438 C 209.1212463378906 602.8804931640625 228.6116333007812 608.9306030273438 248.4263916015625 612.9852905273438 C 268.7589416503906 617.1459350585938 289.6864624023438 619.2555541992188 310.6277770996094 619.2555541992188 C 331.569091796875 619.2555541992188 352.4966125488281 617.1459350585938 372.8291625976562 612.9852905273438 C 392.6438598632812 608.9306030273438 412.1343383789062 602.8804931640625 430.7590026855469 595.0028686523438 C 449.0460205078125 587.26806640625 466.6840209960938 577.6944580078125 483.18310546875 566.5479125976562 C 499.5258483886719 555.5069580078125 514.8939819335938 542.8270874023438 528.8605346679688 528.8605346679688 C 542.8270874023438 514.8939819335938 555.5069580078125 499.5258483886719 566.5479125976562 483.18310546875 C 577.6944580078125 466.6840209960938 587.26806640625 449.0460205078125 595.0028686523438 430.7590026855469 C 602.8804931640625 412.1343383789062 608.9306030273438 392.6438598632812 612.9852905273438 372.8291625976562 C 617.1459350585938 352.4966125488281 619.2555541992188 331.569091796875 619.2555541992188 310.6277770996094 C 619.2555541992188 289.6864624023438 617.1459350585938 268.7589416503906 612.9852905273438 248.4263916015625 C 608.9306030273438 228.6116333007812 602.8804931640625 209.1212463378906 595.0028686523438 190.4965515136719 C 587.26806640625 172.20947265625 577.6944580078125 154.5714721679688 566.5479125976562 138.0724792480469 C 555.5069580078125 121.7296142578125 542.8270874023438 106.361572265625 528.8605346679688 92.39501953125 C 514.8939819335938 78.428466796875 499.5258483886719 65.74853515625 483.18310546875 54.7076416015625 C 466.6840209960938 43.56109619140625 449.0460205078125 33.98748779296875 430.7590026855469 26.252685546875 C 412.1343383789062 18.37506103515625 392.6438598632812 12.324951171875 372.8291625976562 8.270263671875 C 352.4966125488281 4.109619140625 331.569091796875 2 310.6277770996094 2 M 310.6277770996094 0 C 482.1826782226562 0 621.2555541992188 139.0727844238281 621.2555541992188 310.6277770996094 C 621.2555541992188 482.1826782226562 482.1826782226562 621.2555541992188 310.6277770996094 621.2555541992188 C 139.0727844238281 621.2555541992188 0 482.1826782226562 0 310.6277770996094 C 0 139.0727844238281 139.0727844238281 0 310.6277770996094 0 Z" stroke="none" fill="#01b5b7"/>
  </g>
</svg>
