<svg xmlns="http://www.w3.org/2000/svg" width="137.353" height="72" viewBox="0 0 137.353 72"><defs><style>.a{fill:#01b5b7;}.b{fill:#231f20;}.c{fill:#2c857f;}.d{fill:#8cc800;}</style></defs><g transform="translate(-1706 -138)"><path class="a" d="M65.352,6.51a3.63,3.63,0,0,1-1.107-2.724A3.612,3.612,0,0,1,65.354,1.07,3.948,3.948,0,0,1,68.214,0a5.143,5.143,0,0,1,1.134.123,5.03,5.03,0,0,1,1.08.38l-.054,1.548a3.233,3.233,0,0,0-.961-.614,2.846,2.846,0,0,0-1.055-.195,2.475,2.475,0,0,0-1.839.69,2.516,2.516,0,0,0-.685,1.854,2.513,2.513,0,0,0,.636,1.807,2.282,2.282,0,0,0,1.735.668,3.086,3.086,0,0,0,2.159-.838l-.01,1.583a4.08,4.08,0,0,1-1.033.434,4.423,4.423,0,0,1-1.136.143A3.9,3.9,0,0,1,65.352,6.51Zm11.074.88V.173h4.25v1.3H77.969V2.958h2.707V4.27H77.969V6.079h2.707V7.39Zm-19.6,0L53.538,3.111a3.132,3.132,0,0,1-.3-.5q-.163-.323-.345-.772.054.311.079.629t.025.8V7.39H51.522V.173h1.6l3.195,4.2a3.256,3.256,0,0,1,.3.5q.165.323.343.762-.054-.32-.079-.636t-.025-.789V.173h1.474V7.39Zm-12.432,0L43.8,5.857h-2.8L40.5,7.39H38.848L41.594.173h1.765L46.145,7.39ZM42.309,1.97q-.059.279-.089.372l-.779,2.3h2l-.809-2.332q-.035-.1-.089-.355t-.113-.616Q42.368,1.691,42.309,1.97ZM31.9,7.39V.173h1.543V7.39Zm-9.627,0V.173h1.543V6.079h2.465V7.39Zm-9.6,0V.173h1.543V6.079h2.465V7.39Zm-7.132,0L4.955,5.857h-2.8l-.5,1.533H0L2.746.173H4.511L7.3,7.39ZM3.461,1.97q-.059.279-.089.372l-.779,2.3h2L3.786,2.312q-.034-.1-.089-.355t-.113-.616Q3.52,1.691,3.461,1.97Z" transform="translate(1761.355 183.854)"/><path class="b" d="M99.984,3.726A3.575,3.575,0,0,1,103.649,0a3.516,3.516,0,0,1,3.594,3.715,3.63,3.63,0,1,1-7.259.01Zm1.313.02a2.319,2.319,0,1,0,4.634-.01,2.326,2.326,0,1,0-4.634.01Zm-19.376-.02A3.575,3.575,0,0,1,85.586,0,3.516,3.516,0,0,1,89.18,3.715a3.63,3.63,0,1,1-7.259.01Zm1.312.02a2.319,2.319,0,1,0,4.634-.01,2.326,2.326,0,1,0-4.634.01Zm-9.249-.02A3.557,3.557,0,0,1,77.73,0a3.646,3.646,0,0,1,2.595,1.08l-.888.858a2.428,2.428,0,0,0-1.706-.666A2.317,2.317,0,0,0,75.3,3.726,2.266,2.266,0,0,0,77.73,6.118,2.6,2.6,0,0,0,79.507,5.4l.909.919A3.725,3.725,0,0,1,77.73,7.37,3.474,3.474,0,0,1,73.985,3.726Zm-53.437,0A3.557,3.557,0,0,1,24.293,0a3.646,3.646,0,0,1,2.595,1.08L26,1.939a2.428,2.428,0,0,0-1.706-.666A2.317,2.317,0,0,0,21.86,3.726a2.266,2.266,0,0,0,2.433,2.393A2.6,2.6,0,0,0,26.07,5.4l.909.919a3.725,3.725,0,0,1-2.686,1.05A3.474,3.474,0,0,1,20.547,3.726ZM0,3.726A3.557,3.557,0,0,1,3.746,0,3.646,3.646,0,0,1,6.34,1.08l-.888.858a2.428,2.428,0,0,0-1.706-.666A2.317,2.317,0,0,0,1.313,3.726,2.266,2.266,0,0,0,3.746,6.118,2.6,2.6,0,0,0,5.523,5.4l.909.919A3.725,3.725,0,0,1,3.746,7.37,3.474,3.474,0,0,1,0,3.726ZM28.988,4.2V.151h1.323V4.2a1.733,1.733,0,0,0,1.827,1.949c1.1,0,1.727-.737,1.727-1.949V.151h1.323V4.2a2.87,2.87,0,0,1-3.059,3.16A2.948,2.948,0,0,1,28.988,4.2ZM115.7,7.219V2.09l-2.3,3.069h-.263L110.889,2.08V7.219h-1.333V.151h1.535L113.3,3.19,115.513.151h1.525V7.219Zm6.059-.01V4.291L119.047.2V.141h1.585l1.8,2.918L124.307.141h1.605V.2L123.1,4.291V7.209Zm-25.182,0L92.826,2.5v4.7H91.493V.141h1.08L96.329,4.9V.141h1.333V7.209Zm-29.907,0V.141h5.29V1.434H68V3.059h3.826V4.3H68V5.9h3.968V7.209Zm-8.153,0-2.05-2.362H55.119V7.209H53.786V.131c1.121,0,2.241.01,3.362.01a2.342,2.342,0,0,1,2.544,2.342A2.1,2.1,0,0,1,57.906,4.7l2.14,2.413v.091Zm-3.4-3.564h2.029A1.1,1.1,0,0,0,58.36,2.514a1.107,1.107,0,0,0-1.211-1.131H55.119ZM50.4,7.209l-.6-1.333h-3.7l-.606,1.333H44.063L47.233.141h1.454l3.17,7.067ZM46.648,4.634h2.625L47.96,1.626ZM37.833,7.209V.141h1.333V5.977H42.8V7.209Zm-20.507,0-2.05-2.362H13.924V7.209H12.591V.131c1.121,0,2.241.01,3.362.01A2.342,2.342,0,0,1,18.5,2.484,2.1,2.1,0,0,1,16.71,4.7l2.14,2.413v.091Zm-3.4-3.564h2.029a1.1,1.1,0,0,0,1.211-1.131,1.107,1.107,0,0,0-1.211-1.131H13.924ZM8.532,7.209V.141H9.855V7.209Z" transform="translate(1717.44 170.315)"/><g transform="translate(1713.443 184.618)"><path class="c" d="M881.559,1094.667a2.546,2.546,0,0,1,.231-1.31,2.656,2.656,0,0,1,.209-.365,2.212,2.212,0,0,1,.26-.314c.047-.048.1-.091.147-.134s.1-.084.158-.121a1.786,1.786,0,0,1,.346-.186,1.93,1.93,0,0,1,.78-.141,1.8,1.8,0,0,1,.39.058,2.132,2.132,0,0,1,.729.338,2.485,2.485,0,0,1,.6.6,2.541,2.541,0,0,1,.389.821,2.288,2.288,0,0,1,.061.905,2.165,2.165,0,0,1-.292.826,2.2,2.2,0,0,1-.609.642,2.347,2.347,0,0,1-.626.3,2.406,2.406,0,0,1-.709.088,2.291,2.291,0,0,1-.455-.067,2.191,2.191,0,0,1-.215-.066,1.961,1.961,0,0,1-.205-.089,2.18,2.18,0,0,1-.373-.236,2.029,2.029,0,0,1-.315-.305,2.2,2.2,0,0,1-.246-.367A2.3,2.3,0,0,1,881.559,1094.667Z" transform="translate(-854.008 -1076.057)"/><path class="c" d="M834.9,1099.582a2.41,2.41,0,0,1,.433-1.183,2.528,2.528,0,0,1,.256-.3,2.069,2.069,0,0,1,.624-.435,1.687,1.687,0,0,1,.355-.117l.092-.016.094-.013a1.643,1.643,0,0,1,.191-.011,1.912,1.912,0,0,1,1.353.6c.046.047.091.1.133.148s.083.1.122.159a2.4,2.4,0,0,1,.426,1.184,2.171,2.171,0,0,1-.1.854,2.062,2.062,0,0,1-.283.557,1.939,1.939,0,0,1-.13.16,2.054,2.054,0,0,1-.309.28c-.056.042-.115.081-.176.117a1.88,1.88,0,0,1-.189.1,2.18,2.18,0,0,1-.412.136c-.036.008-.072.016-.109.021l-.111.013q-.112.011-.227.011c-.077,0-.152,0-.227-.012-.037,0-.074-.008-.111-.014l-.109-.022a2.174,2.174,0,0,1-.411-.138,1.922,1.922,0,0,1-.365-.216,2.082,2.082,0,0,1-.307-.281,1.918,1.918,0,0,1-.241-.338,2.047,2.047,0,0,1-.168-.382A2.169,2.169,0,0,1,834.9,1099.582Z" transform="translate(-811.752 -1080.955)"/><path class="c" d="M788.3,1096.033a2.255,2.255,0,0,1,.887-1.267,1.915,1.915,0,0,1,.655-.3,1.755,1.755,0,0,1,.351-.05,1.612,1.612,0,0,1,.178,0l.09.01.09.013a1.689,1.689,0,0,1,.654.274,1.783,1.783,0,0,1,.273.232,2.109,2.109,0,0,1,.231.282,2.27,2.27,0,0,1,.374,1.5,2.066,2.066,0,0,1-.24.776,1.918,1.918,0,0,1-.506.592,1.847,1.847,0,0,1-.334.208,1.982,1.982,0,0,1-.374.134,1.944,1.944,0,0,1-.824.024c-.036-.007-.07-.013-.105-.021l-.1-.029c-.067-.021-.133-.045-.2-.071a1.915,1.915,0,0,1-.357-.2,1.938,1.938,0,0,1-.538-.573A1.976,1.976,0,0,1,788.3,1096.033Z" transform="translate(-769.487 -1078.161)"/><path class="c" d="M743.343,1084.151a2.122,2.122,0,0,1,1.03-1.026,1.905,1.905,0,0,1,.324-.114,1.7,1.7,0,0,1,.334-.054,1.659,1.659,0,0,1,.167,0c.055,0,.111.009.167.016a1.448,1.448,0,0,1,.329.085,1.569,1.569,0,0,1,.156.071,1.43,1.43,0,0,1,.146.083,1.543,1.543,0,0,1,.259.212q.029.03.058.062c.019.02.037.042.055.063q.054.065.1.135a1.856,1.856,0,0,1,.166.3c.023.054.044.109.064.165s.036.112.05.17a2.085,2.085,0,0,1,.057.359,2.114,2.114,0,0,1-.083.757,1.938,1.938,0,0,1-.355.674,1.858,1.858,0,0,1-.411.371,1.708,1.708,0,0,1-.158.091,1.829,1.829,0,0,1-.342.134,1.807,1.807,0,0,1-.182.041l-.093.014-.093.007a1.9,1.9,0,0,1-.38-.017,1.644,1.644,0,0,1-.381-.1,1.962,1.962,0,0,1-.352-.178,1.468,1.468,0,0,1-.155-.113q-.074-.061-.14-.128a1.866,1.866,0,0,1-.234-.289,1.821,1.821,0,0,1-.285-1.051A1.949,1.949,0,0,1,743.343,1084.151Z" transform="translate(-728.662 -1067.779)"/><path class="c" d="M701.493,1064.364a1.966,1.966,0,0,1,1.116-.778,1.765,1.765,0,0,1,.319-.053,1.786,1.786,0,0,1,.316.008,1.442,1.442,0,0,1,.307.069,1.352,1.352,0,0,1,.147.06c.048.023.1.047.143.075a1.506,1.506,0,0,1,.459.432,1.576,1.576,0,0,1,.154.277c.021.049.04.1.057.151s.033.1.045.156a1.97,1.97,0,0,1-.165,1.351,1.751,1.751,0,0,1-1.042.888q-.082.025-.167.043a1.625,1.625,0,0,1-.17.024,1.743,1.743,0,0,1-.348,0,1.688,1.688,0,0,1-.68-.233,1.536,1.536,0,0,1-.154-.1,1.725,1.725,0,0,1-.138-.119,1.771,1.771,0,0,1-.232-.269,1.581,1.581,0,0,1-.166-.306,1.7,1.7,0,0,1-.1-.329,1.678,1.678,0,0,1,.009-.685A1.824,1.824,0,0,1,701.493,1064.364Z" transform="translate(-690.626 -1050.185)"/><path class="c" d="M664.1,1037.307a1.821,1.821,0,0,1,1.151-.532,1.592,1.592,0,0,1,.592.063c.047.015.093.032.137.051a1.465,1.465,0,0,1,.133.064,1.306,1.306,0,0,1,.244.172,1.49,1.49,0,0,1,.491,1.052,1.83,1.83,0,0,1-.379,1.21,1.632,1.632,0,0,1-1.1.638,1.564,1.564,0,0,1-1.219-.382,1.693,1.693,0,0,1-.23-.251,1.457,1.457,0,0,1-.092-.137,1.623,1.623,0,0,1-.075-.147,1.582,1.582,0,0,1-.14-.623A1.641,1.641,0,0,1,664.1,1037.307Z" transform="translate(-656.615 -1025.948)"/><path class="c" d="M632.422,1003.806a1.689,1.689,0,0,1,1.138-.3,1.49,1.49,0,0,1,.273.055,1.4,1.4,0,0,1,.257.1,1.337,1.337,0,0,1,.424.349,1.377,1.377,0,0,1,.272,1.045,1.678,1.678,0,0,1-.548,1.038,1.529,1.529,0,0,1-1.115.4,1.454,1.454,0,0,1-1.043-.55,1.426,1.426,0,0,1-.272-.552,1.476,1.476,0,0,1-.044-.294,1.5,1.5,0,0,1,.658-1.289Z" transform="translate(-627.766 -995.812)"/><path class="c" d="M607.541,964.938a1.555,1.555,0,0,1,.548-.141,1.529,1.529,0,0,1,.532.056,1.381,1.381,0,0,1,.24.095,1.557,1.557,0,0,1,.215.135,1.211,1.211,0,0,1,.466.877,1.448,1.448,0,0,1-.007.253,1.37,1.37,0,0,1-.056.252,1.556,1.556,0,0,1-.673.848,1.463,1.463,0,0,1-.533.2,1.364,1.364,0,0,1-.8-.119,1.219,1.219,0,0,1-.233-.144,1.337,1.337,0,0,1-.518-.974c0-.046,0-.092,0-.137s.007-.092.013-.137a1.37,1.37,0,0,1,.347-.728A1.457,1.457,0,0,1,607.541,964.938Z" transform="translate(-605.084 -960.754)"/><path class="c" d="M590.3,921.99a1.411,1.411,0,0,1,.987.1,1.263,1.263,0,0,1,.2.125c.031.024.061.049.089.075s.057.054.083.082a1.067,1.067,0,0,1,.232.4,1.217,1.217,0,0,1,.048.232,1.079,1.079,0,0,1,0,.232,1.184,1.184,0,0,1-.05.228,1.306,1.306,0,0,1-.091.218,1.4,1.4,0,0,1-.746.65,1.291,1.291,0,0,1-.994-.027,1.221,1.221,0,0,1-.215-.125,1.234,1.234,0,0,1-.184-.167,1.258,1.258,0,0,1-.149-.205,1.128,1.128,0,0,1-.107-.239,1.267,1.267,0,0,1-.05-.51,1.209,1.209,0,0,1,.02-.123c.009-.041.021-.081.034-.12a1.264,1.264,0,0,1,.1-.226A1.287,1.287,0,0,1,590.3,921.99Z" transform="translate(-589.349 -921.942)"/></g><g transform="translate(1719.816 185.667)"><path class="a" d="M969.078,1017.233a2.662,2.662,0,0,1-.164-.891,2.616,2.616,0,0,1,.124-.828,2.175,2.175,0,0,1,.155-.365c.031-.057.064-.111.1-.165a1.844,1.844,0,0,1,.112-.154,1.6,1.6,0,0,1,.266-.261,1.526,1.526,0,0,1,.319-.2,1.547,1.547,0,0,1,.177-.069,1.529,1.529,0,0,1,.18-.051,1.642,1.642,0,0,1,.373-.035,2.04,2.04,0,0,1,.759.154,2.529,2.529,0,0,1,.717.433,2.678,2.678,0,0,1,.581.7,2.388,2.388,0,0,1,.3.854,2.173,2.173,0,0,1-.048.862,2.082,2.082,0,0,1-.39.761,2.13,2.13,0,0,1-.5.435,2.222,2.222,0,0,1-.2.107,1.948,1.948,0,0,1-.866.192,2.081,2.081,0,0,1-.216-.011,1.912,1.912,0,0,1-.213-.037,2.094,2.094,0,0,1-1.1-.651A2.394,2.394,0,0,1,969.078,1017.233Z" transform="translate(-939.513 -1006.566)"/><path class="a" d="M927.6,1033.186a2.52,2.52,0,0,1,0-.858,2.427,2.427,0,0,1,.255-.751,2.036,2.036,0,0,1,.206-.314,2.007,2.007,0,0,1,.251-.261,1.558,1.558,0,0,1,.293-.2l.08-.039.082-.036a1.449,1.449,0,0,1,.171-.057,1.763,1.763,0,0,1,1.389.251q.081.051.16.11t.153.124a2.425,2.425,0,0,1,.281.292,2.52,2.52,0,0,1,.42.748,2.271,2.271,0,0,1,.133.847,2.089,2.089,0,0,1-.056.409,2.039,2.039,0,0,1-.058.2,1.913,1.913,0,0,1-.078.187,1.989,1.989,0,0,1-.211.346q-.062.081-.132.156a1.734,1.734,0,0,1-.149.14,1.994,1.994,0,0,1-.343.232c-.031.016-.063.033-.095.047s-.065.028-.1.04a2.014,2.014,0,0,1-.206.066,2.039,2.039,0,0,1-.212.044c-.035.005-.07.01-.105.014s-.071,0-.106.006a2.012,2.012,0,0,1-.413-.031,1.772,1.772,0,0,1-.39-.118,1.994,1.994,0,0,1-.354-.2,1.928,1.928,0,0,1-.308-.266,2.1,2.1,0,0,1-.252-.328A2.275,2.275,0,0,1,927.6,1033.186Z" transform="translate(-902.055 -1021.425)"/><path class="a" d="M883.917,1041.45a2.338,2.338,0,0,1,.5-1.453,1.832,1.832,0,0,1,.523-.457,1.561,1.561,0,0,1,.307-.137,1.286,1.286,0,0,1,.163-.041l.084-.013.085-.01a1.509,1.509,0,0,1,.664.1,1.681,1.681,0,0,1,.306.155,2.091,2.091,0,0,1,.282.215,2.286,2.286,0,0,1,.46.593,2.355,2.355,0,0,1,.26.765,2.162,2.162,0,0,1-.023.81,1.918,1.918,0,0,1-.315.7,1.777,1.777,0,0,1-.254.285,1.847,1.847,0,0,1-.31.224,1.775,1.775,0,0,1-.751.232c-.034,0-.068.005-.1.006h-.1a1.864,1.864,0,0,1-.2-.019,1.773,1.773,0,0,1-.376-.1,1.842,1.842,0,0,1-.636-.416A2.028,2.028,0,0,1,883.917,1041.45Z" transform="translate(-862.527 -1029.317)"/><path class="a" d="M839.539,1041.8a2.207,2.207,0,0,1,.257-.714,2.129,2.129,0,0,1,.444-.549,1.848,1.848,0,0,1,.27-.2,1.557,1.557,0,0,1,.292-.14,1.446,1.446,0,0,1,.153-.045c.051-.012.1-.021.156-.029a1.314,1.314,0,0,1,.32-.005,1.422,1.422,0,0,1,.16.027,1.3,1.3,0,0,1,.154.042,1.4,1.4,0,0,1,.287.136l.067.044.066.046a1.583,1.583,0,0,1,.125.1,1.809,1.809,0,0,1,.224.248c.034.046.067.093.1.142s.06.1.087.151a2.172,2.172,0,0,1,.139.331,2.22,2.22,0,0,1,.108.752,2.026,2.026,0,0,1-.161.743,1.879,1.879,0,0,1-.177.321q-.052.075-.11.144a1.661,1.661,0,0,1-.123.13,1.762,1.762,0,0,1-.439.306l-.082.038-.084.032a1.756,1.756,0,0,1-.54.1,1.676,1.676,0,0,1-.189-.01,1.772,1.772,0,0,1-.367-.078,1.371,1.371,0,0,1-.17-.068,1.671,1.671,0,0,1-.677-.575,1.81,1.81,0,0,1-.282-.663A2.04,2.04,0,0,1,839.539,1041.8Z" transform="translate(-822.302 -1030.025)"/><path class="a" d="M795.979,1034.266a2.058,2.058,0,0,1,.353-.617,2,2,0,0,1,.5-.432,1.715,1.715,0,0,1,.282-.138,1.645,1.645,0,0,1,.293-.079,1.313,1.313,0,0,1,.3-.018,1.235,1.235,0,0,1,.149.017,1.474,1.474,0,0,1,.149.033,1.351,1.351,0,0,1,.522.289,1.489,1.489,0,0,1,.206.224c.031.041.06.085.088.129s.054.09.078.137a2.04,2.04,0,0,1,.165,1.343,1.8,1.8,0,0,1-.752,1.133,1.644,1.644,0,0,1-.144.086,1.547,1.547,0,0,1-.151.068,1.641,1.641,0,0,1-.322.089,1.541,1.541,0,0,1-.683-.04,1.4,1.4,0,0,1-.167-.057,1.618,1.618,0,0,1-.434-.271,1.48,1.48,0,0,1-.225-.248,1.659,1.659,0,0,1-.169-.288,1.684,1.684,0,0,1-.15-.658A1.9,1.9,0,0,1,795.979,1034.266Z" transform="translate(-782.771 -1023.563)"/><path class="a" d="M754.685,1019.1a1.884,1.884,0,0,1,.953-.823,1.509,1.509,0,0,1,.565-.1,1.228,1.228,0,0,1,.139.01,1.271,1.271,0,0,1,.138.023,1.161,1.161,0,0,1,.266.1,1.374,1.374,0,0,1,.693.865,1.9,1.9,0,0,1-.075,1.258,1.677,1.677,0,0,1-.88.912,1.454,1.454,0,0,1-1.223-.029,1.537,1.537,0,0,1-.273-.175,1.438,1.438,0,0,1-.118-.106,1.517,1.517,0,0,1-.1-.119,1.5,1.5,0,0,1-.273-.554A1.684,1.684,0,0,1,754.685,1019.1Z" transform="translate(-745.26 -1010.149)"/><path class="a" d="M717.038,996.736a1.75,1.75,0,0,1,1-.6,1.429,1.429,0,0,1,.269-.025,1.314,1.314,0,0,1,.264.023,1.2,1.2,0,0,1,.476.209,1.271,1.271,0,0,1,.489.908,1.736,1.736,0,0,1-.28,1.132,1.57,1.57,0,0,1-.956.683,1.349,1.349,0,0,1-1.106-.23,1.3,1.3,0,0,1-.382-.444,1.383,1.383,0,0,1-.108-.265,1.432,1.432,0,0,1-.048-.284A1.558,1.558,0,0,1,717.038,996.736Z" transform="translate(-711.032 -990.172)"/><path class="a" d="M684.326,967.8a1.631,1.631,0,0,1,.489-.282,1.553,1.553,0,0,1,.518-.1,1.349,1.349,0,0,1,.249.022c.04.007.08.017.119.028a1.185,1.185,0,0,1,.116.038,1.083,1.083,0,0,1,.64.686,1.359,1.359,0,0,1,.05.239,1.331,1.331,0,0,1,0,.25,1.551,1.551,0,0,1-.131.511,1.622,1.622,0,0,1-.315.469,1.533,1.533,0,0,1-.46.331,1.366,1.366,0,0,1-.519.125,1.321,1.321,0,0,1-.263-.016,1.145,1.145,0,0,1-.254-.07,1.213,1.213,0,0,1-.768-1.024,1.327,1.327,0,0,1,0-.264,1.377,1.377,0,0,1,.161-.509A1.525,1.525,0,0,1,684.326,967.8Z" transform="translate(-681.268 -964.186)"/><path class="a" d="M657.636,933.266a1.457,1.457,0,0,1,.968-.18,1.2,1.2,0,0,1,.221.06q.053.02.1.045c.034.016.067.034.1.053a.961.961,0,0,1,.316.309,1.1,1.1,0,0,1,.1.2.989.989,0,0,1,.052.215,1.1,1.1,0,0,1,0,.225,1.259,1.259,0,0,1-.037.226,1.452,1.452,0,0,1-.563.806,1.327,1.327,0,0,1-.956.247,1.186,1.186,0,0,1-.234-.057,1.145,1.145,0,0,1-.215-.105,1.128,1.128,0,0,1-.191-.149,1.015,1.015,0,0,1-.158-.193,1.154,1.154,0,0,1-.167-.459,1.088,1.088,0,0,1-.01-.119,1.147,1.147,0,0,1,0-.12,1.214,1.214,0,0,1,.045-.237A1.321,1.321,0,0,1,657.636,933.266Z" transform="translate(-656.967 -933.067)"/></g><g transform="translate(1749.055 138)"><path class="d" d="M971.671,429.9a2.443,2.443,0,0,1-.319.851,2.476,2.476,0,0,1-.258.352,2.67,2.67,0,0,1-.307.3,2.3,2.3,0,0,1-.346.234c-.06.033-.122.062-.185.091s-.127.054-.191.075a1.911,1.911,0,0,1-.4.089,1.862,1.862,0,0,1-.625-.021,1.841,1.841,0,0,1-.2-.047,1.911,1.911,0,0,1-.378-.158,2.215,2.215,0,0,1-.645-.516,2.481,2.481,0,0,1-.618-1.628,2.207,2.207,0,0,1,.182-.89,2.164,2.164,0,0,1,.515-.722,2.289,2.289,0,0,1,.782-.462,2.467,2.467,0,0,1,.464-.1c.08-.01.162-.017.244-.019s.166,0,.25.01a2.532,2.532,0,0,1,.485.09,2.494,2.494,0,0,1,.439.184q.1.056.2.12a2.035,2.035,0,0,1,.183.141,2.266,2.266,0,0,1,.313.326,2.04,2.04,0,0,1,.235.378,2.145,2.145,0,0,1,.151.419A2.215,2.215,0,0,1,971.671,429.9Z" transform="translate(-967.2 -427.318)"/><path class="d" d="M1021.879,440.074a2.31,2.31,0,0,1-.439.74,2.359,2.359,0,0,1-.3.285,2.484,2.484,0,0,1-.336.224,2.173,2.173,0,0,1-.362.161,2.3,2.3,0,0,1-.379.09,1.821,1.821,0,0,1-.388.016l-.1-.009-.1-.012a1.746,1.746,0,0,1-.2-.041,2.038,2.038,0,0,1-1.209-.944c-.034-.058-.066-.117-.1-.178s-.057-.122-.081-.185a2.351,2.351,0,0,1-.114-.4,2.3,2.3,0,0,1-.005-.86,2.1,2.1,0,0,1,.323-.8,2.034,2.034,0,0,1,.271-.323,2.084,2.084,0,0,1,.159-.139,2.011,2.011,0,0,1,.173-.12,2.14,2.14,0,0,1,.383-.188q.1-.038.207-.066a1.935,1.935,0,0,1,.215-.043,2.333,2.333,0,0,1,.448-.021c.038,0,.076,0,.115.009l.115.017q.115.02.23.051t.224.072c.036.014.072.028.107.044s.069.033.1.051a2.341,2.341,0,0,1,.377.244,1.992,1.992,0,0,1,.31.307,2.147,2.147,0,0,1,.236.355,1.949,1.949,0,0,1,.155.392,2.028,2.028,0,0,1,.071.415A2.1,2.1,0,0,1,1021.879,440.074Z" transform="translate(-1012.979 -436.326)"/><path class="d" d="M1069.6,458.867a2.2,2.2,0,0,1-1.206.983,2,2,0,0,1-.732.108,1.889,1.889,0,0,1-.365-.049,1.708,1.708,0,0,1-.178-.054l-.088-.035-.087-.038a1.833,1.833,0,0,1-.589-.446,1.887,1.887,0,0,1-.215-.3c-.031-.054-.061-.108-.088-.164s-.051-.114-.074-.173a2.228,2.228,0,0,1-.138-.758,2.152,2.152,0,0,1,.144-.8,2,2,0,0,1,.438-.685,1.914,1.914,0,0,1,.658-.434q.093-.037.19-.065a1.681,1.681,0,0,1,.2-.045,2.1,2.1,0,0,1,.408-.027,2.077,2.077,0,0,1,.83.2c.034.016.067.032.1.05s.064.037.095.056q.093.058.178.123a1.995,1.995,0,0,1,.7.992A1.942,1.942,0,0,1,1069.6,458.867Z" transform="translate(-1056.542 -453.193)"/><path class="d" d="M1113.324,485.718a2.019,2.019,0,0,1-.59.481,2.076,2.076,0,0,1-.687.23,1.941,1.941,0,0,1-.351.019,1.784,1.784,0,0,1-.346-.042,1.634,1.634,0,0,1-.167-.047c-.055-.018-.109-.04-.163-.063a1.6,1.6,0,0,1-.308-.176,1.7,1.7,0,0,1-.138-.113,1.514,1.514,0,0,1-.126-.123,1.66,1.66,0,0,1-.207-.28c-.015-.025-.029-.051-.042-.076s-.027-.051-.04-.077q-.038-.078-.068-.16a1.9,1.9,0,0,1-.091-.341c-.01-.059-.018-.118-.023-.178s-.008-.119-.009-.18a2.057,2.057,0,0,1,.032-.365,2.031,2.031,0,0,1,.271-.713,1.871,1.871,0,0,1,.522-.556,1.824,1.824,0,0,1,.327-.181,1.858,1.858,0,0,1,.176-.065,1.735,1.735,0,0,1,.181-.045,1.891,1.891,0,0,1,.375-.034c.063,0,.127,0,.191.011l.1.012.095.019a2.04,2.04,0,0,1,.374.123q.092.04.182.091a2.014,2.014,0,0,1,.173.113,2.111,2.111,0,0,1,.306.271,1.554,1.554,0,0,1,.126.154q.058.08.108.164a1.935,1.935,0,0,1,.162.347,1.852,1.852,0,0,1,.084.368,1.806,1.806,0,0,1-.059.738A1.885,1.885,0,0,1,1113.324,485.718Z" transform="translate(-1096.512 -477.42)"/><path class="d" d="M1151.758,519.756a1.891,1.891,0,0,1-.623.348,1.962,1.962,0,0,1-.671.1,1.783,1.783,0,0,1-.328-.039,1.888,1.888,0,0,1-.311-.1,1.566,1.566,0,0,1-.288-.155,1.475,1.475,0,0,1-.131-.1c-.042-.036-.084-.073-.124-.114a1.633,1.633,0,0,1-.351-.555,1.651,1.651,0,0,1-.086-.316c-.01-.054-.016-.109-.021-.164s-.007-.11-.007-.165a1.922,1.922,0,0,1,.495-1.277,1.716,1.716,0,0,1,1.251-.574c.058,0,.118,0,.176.005a1.692,1.692,0,0,1,.174.025,1.837,1.837,0,0,1,.343.1,1.8,1.8,0,0,1,.615.42,1.6,1.6,0,0,1,.127.145q.058.076.108.155a1.906,1.906,0,0,1,.163.329,1.706,1.706,0,0,1,.089.347,1.777,1.777,0,0,1,.018.351,1.675,1.675,0,0,1-.176.671A1.762,1.762,0,0,1,1151.758,519.756Z" transform="translate(-1131.7 -508.224)"/><path class="d" d="M1183.764,559.927a1.777,1.777,0,0,1-1.259.2,1.648,1.648,0,0,1-.567-.232,1.426,1.426,0,0,1-.123-.09,1.509,1.509,0,0,1-.116-.1,1.408,1.408,0,0,1-.2-.24,1.586,1.586,0,0,1-.228-1.181,1.785,1.785,0,0,1,.667-1.086,1.65,1.65,0,0,1,.6-.29,1.561,1.561,0,0,1,.644-.025,1.655,1.655,0,0,1,1.1.722,1.814,1.814,0,0,1,.165.313,1.676,1.676,0,0,1,.057.162,1.7,1.7,0,0,1,.037.166,1.644,1.644,0,0,1-.016.656A1.611,1.611,0,0,1,1183.764,559.927Z" transform="translate(-1161.071 -544.649)"/><path class="d" d="M1208.364,605.014a1.65,1.65,0,0,1-1.183-.023,1.517,1.517,0,0,1-.253-.132,1.429,1.429,0,0,1-.564-1.76,1.637,1.637,0,0,1,.791-.877,1.5,1.5,0,0,1,1.187-.078,1.564,1.564,0,0,1,1.012,1.465,1.57,1.57,0,0,1-.03.305,1.548,1.548,0,0,1-.093.289A1.489,1.489,0,0,1,1208.364,605.014Z" transform="translate(-1183.726 -585.587)"/><path class="d" d="M1224.773,653.606a1.492,1.492,0,0,1-.567-.01,1.511,1.511,0,0,1-.5-.2,1.4,1.4,0,0,1-.209-.162,1.292,1.292,0,0,1-.091-.094,1.241,1.241,0,0,1-.084-.1,1.256,1.256,0,0,1-.22-.481,1.243,1.243,0,0,1-.013-.529,1.532,1.532,0,0,1,.07-.252,1.41,1.41,0,0,1,.117-.237,1.523,1.523,0,0,1,.361-.4,1.487,1.487,0,0,1,.5-.258,1.421,1.421,0,0,1,.567-.047,1.362,1.362,0,0,1,.519.177,1.384,1.384,0,0,1,.225.163,1.259,1.259,0,0,1,.191.208,1.436,1.436,0,0,1,.258,1.117q-.013.07-.032.138c-.014.045-.03.09-.047.133a1.415,1.415,0,0,1-.13.246,1.367,1.367,0,0,1-.389.387A1.408,1.408,0,0,1,1224.773,653.606Z" transform="translate(-1198.95 -629.754)"/><path class="d" d="M1232.534,704.168a1.375,1.375,0,0,1-.929-.362,1.274,1.274,0,0,1-.162-.18,1.172,1.172,0,0,1-.067-.1c-.021-.034-.041-.069-.059-.105a1.151,1.151,0,0,1-.121-.471c0-.021,0-.042,0-.063s0-.042,0-.062a1.137,1.137,0,0,1,.074-.355,1.223,1.223,0,0,1,.107-.216,1.332,1.332,0,0,1,.144-.194,1.371,1.371,0,0,1,.888-.45,1.267,1.267,0,0,1,.954.3,1.285,1.285,0,0,1,.176.184,1.309,1.309,0,0,1,.135.218,1.358,1.358,0,0,1,.092.246c.012.043.021.087.028.132,0,.022.007.045.009.068s0,.046,0,.069a1.358,1.358,0,0,1-.083.526,1.2,1.2,0,0,1-.051.118c-.02.038-.041.076-.064.112a1.288,1.288,0,0,1-.157.2A1.262,1.262,0,0,1,1232.534,704.168Z" transform="translate(-1206.314 -675.752)"/></g><g transform="translate(1737.233 142.499)"><path class="c" d="M846.09,479.922a2.549,2.549,0,0,1-.231,1.31,2.672,2.672,0,0,1-.209.365,2.223,2.223,0,0,1-.26.314c-.047.048-.1.091-.147.134a1.979,1.979,0,0,1-.158.121,1.773,1.773,0,0,1-.346.186,1.71,1.71,0,0,1-.582.137,1.687,1.687,0,0,1-.2,0,1.8,1.8,0,0,1-.39-.058,2.136,2.136,0,0,1-.729-.338,2.493,2.493,0,0,1-.6-.6,2.545,2.545,0,0,1-.389-.821,2.287,2.287,0,0,1-.061-.9,2.163,2.163,0,0,1,.293-.826,2.194,2.194,0,0,1,.608-.642,2.319,2.319,0,0,1,.4-.218q.108-.045.222-.08a2.4,2.4,0,0,1,.235-.053,2.361,2.361,0,0,1,.475-.035,2.334,2.334,0,0,1,.455.067q.11.028.215.066a2.014,2.014,0,0,1,.205.089,2.2,2.2,0,0,1,.373.236,2.015,2.015,0,0,1,.315.305,2.17,2.17,0,0,1,.246.367A2.29,2.29,0,0,1,846.09,479.922Z" transform="translate(-841.767 -477.649)"/><path class="c" d="M895.055,477.3a2.412,2.412,0,0,1-.433,1.183,2.487,2.487,0,0,1-.256.3,2.108,2.108,0,0,1-.3.25,2.175,2.175,0,0,1-.328.186,1.7,1.7,0,0,1-.355.117l-.092.016-.094.014a1.656,1.656,0,0,1-.191.011,1.912,1.912,0,0,1-1.352-.6c-.046-.047-.09-.1-.133-.148s-.083-.1-.122-.158a2.4,2.4,0,0,1-.426-1.185,2.17,2.17,0,0,1,.1-.853,2.063,2.063,0,0,1,.283-.557,1.984,1.984,0,0,1,.13-.16,2.072,2.072,0,0,1,.309-.28,2.109,2.109,0,0,1,.176-.117,1.832,1.832,0,0,1,.189-.1,2.193,2.193,0,0,1,.412-.136c.036-.008.072-.015.109-.021l.111-.014q.112-.011.227-.011c.076,0,.152,0,.227.012.037,0,.074.008.111.014l.109.022a2.182,2.182,0,0,1,.411.138,1.89,1.89,0,0,1,.364.216,2.065,2.065,0,0,1,.307.281,1.921,1.921,0,0,1,.241.338,2.065,2.065,0,0,1,.168.382A2.172,2.172,0,0,1,895.055,477.3Z" transform="translate(-886.332 -475.048)"/><path class="c" d="M943.828,483.287a2.255,2.255,0,0,1-.887,1.267,1.919,1.919,0,0,1-.655.3,1.749,1.749,0,0,1-.351.05,1.562,1.562,0,0,1-.178,0l-.089-.01-.09-.013a1.686,1.686,0,0,1-.654-.274,1.806,1.806,0,0,1-.273-.232,2.136,2.136,0,0,1-.231-.282,2.271,2.271,0,0,1-.374-1.5,2.069,2.069,0,0,1,.24-.776,1.916,1.916,0,0,1,.506-.592,1.847,1.847,0,0,1,.334-.208,1.988,1.988,0,0,1,.374-.134,1.943,1.943,0,0,1,.824-.023c.035.006.071.013.1.022l.1.029q.1.031.2.071a1.908,1.908,0,0,1,.357.2,1.941,1.941,0,0,1,.538.573A1.977,1.977,0,0,1,943.828,483.287Z" transform="translate(-930.771 -480.276)"/><path class="c" d="M990.85,497.732a2.122,2.122,0,0,1-1.03,1.026,1.916,1.916,0,0,1-.324.114,1.705,1.705,0,0,1-.334.054,1.574,1.574,0,0,1-.167,0c-.056,0-.111-.009-.167-.016a1.467,1.467,0,0,1-.329-.085,1.547,1.547,0,0,1-.156-.071,1.461,1.461,0,0,1-.146-.083,1.529,1.529,0,0,1-.259-.212c-.02-.02-.039-.041-.058-.062s-.037-.042-.055-.063q-.054-.065-.1-.135a1.858,1.858,0,0,1-.166-.3c-.024-.054-.045-.109-.064-.165s-.036-.112-.051-.17a2.115,2.115,0,0,1,.026-1.116,1.942,1.942,0,0,1,.355-.674,1.841,1.841,0,0,1,.262-.261c.048-.039.1-.075.149-.109a1.754,1.754,0,0,1,.158-.092,1.855,1.855,0,0,1,.524-.175l.093-.014.093-.008a1.9,1.9,0,0,1,.38.017,1.941,1.941,0,0,1,.192.038,1.88,1.88,0,0,1,.189.062,1.961,1.961,0,0,1,.352.178,1.5,1.5,0,0,1,.155.114,1.891,1.891,0,0,1,.374.417,1.82,1.82,0,0,1,.286,1.051A1.946,1.946,0,0,1,990.85,497.732Z" transform="translate(-973.658 -493.221)"/><path class="c" d="M1034.69,520.161a1.962,1.962,0,0,1-.507.5,1.984,1.984,0,0,1-.61.277,1.76,1.76,0,0,1-.319.053,1.782,1.782,0,0,1-.316-.008,1.454,1.454,0,0,1-.307-.069,1.423,1.423,0,0,1-.147-.06c-.048-.023-.1-.047-.143-.075a1.51,1.51,0,0,1-.459-.432,1.574,1.574,0,0,1-.154-.277c-.021-.049-.041-.1-.057-.151s-.033-.1-.046-.155a1.97,1.97,0,0,1,.165-1.352,1.75,1.75,0,0,1,1.042-.887,1.719,1.719,0,0,1,.167-.043,1.573,1.573,0,0,1,.17-.024,1.731,1.731,0,0,1,.347,0,1.684,1.684,0,0,1,.679.233,1.546,1.546,0,0,1,.154.1c.048.038.095.077.138.119a1.773,1.773,0,0,1,.232.269,1.581,1.581,0,0,1,.166.306,1.73,1.73,0,0,1,.1.329,1.684,1.684,0,0,1-.009.685A1.823,1.823,0,0,1,1034.69,520.161Z" transform="translate(-1013.684 -513.457)"/><path class="c" d="M1074.039,549.866a1.821,1.821,0,0,1-1.151.532,1.589,1.589,0,0,1-.592-.063,1.365,1.365,0,0,1-.137-.051,1.436,1.436,0,0,1-.134-.063,1.3,1.3,0,0,1-.245-.172,1.489,1.489,0,0,1-.49-1.052,1.83,1.83,0,0,1,.379-1.21,1.632,1.632,0,0,1,1.1-.638,1.564,1.564,0,0,1,1.219.382,1.68,1.68,0,0,1,.231.251,1.5,1.5,0,0,1,.092.138,1.617,1.617,0,0,1,.214.77A1.642,1.642,0,0,1,1074.039,549.866Z" transform="translate(-1049.655 -540.342)"/><path class="c" d="M1107.693,585.97a1.691,1.691,0,0,1-1.138.3,1.482,1.482,0,0,1-.273-.055,1.392,1.392,0,0,1-.257-.1,1.338,1.338,0,0,1-.424-.349,1.375,1.375,0,0,1-.272-1.045,1.676,1.676,0,0,1,.548-1.038,1.528,1.528,0,0,1,1.115-.4,1.452,1.452,0,0,1,1.043.55,1.422,1.422,0,0,1,.273.552,1.385,1.385,0,0,1,.024.59A1.518,1.518,0,0,1,1107.693,585.97Z" transform="translate(-1080.476 -573.081)"/><path class="c" d="M1134.624,627.378a1.549,1.549,0,0,1-.548.141,1.521,1.521,0,0,1-.532-.056,1.359,1.359,0,0,1-.24-.095,1.209,1.209,0,0,1-.11-.063,1.268,1.268,0,0,1-.105-.072,1.162,1.162,0,0,1-.327-.388,1.144,1.144,0,0,1-.139-.488,1.421,1.421,0,0,1,.007-.254,1.358,1.358,0,0,1,.055-.252,1.554,1.554,0,0,1,.673-.848,1.463,1.463,0,0,1,.533-.2,1.366,1.366,0,0,1,.8.119,1.226,1.226,0,0,1,.233.144,1.339,1.339,0,0,1,.519.974c0,.046,0,.092,0,.137s-.007.091-.013.137a1.374,1.374,0,0,1-.347.727A1.458,1.458,0,0,1,1134.624,627.378Z" transform="translate(-1105.208 -610.678)"/><path class="c" d="M1154,672.768a1.408,1.408,0,0,1-.987-.1,1.265,1.265,0,0,1-.2-.124,1.157,1.157,0,0,1-.089-.075c-.029-.026-.057-.054-.083-.082a1.064,1.064,0,0,1-.233-.4,1.212,1.212,0,0,1-.048-.232,1.079,1.079,0,0,1,0-.232,1.179,1.179,0,0,1,.05-.229,1.3,1.3,0,0,1,.091-.218,1.4,1.4,0,0,1,.746-.65,1.292,1.292,0,0,1,.994.027,1.225,1.225,0,0,1,.214.125,1.242,1.242,0,0,1,.333.373,1.133,1.133,0,0,1,.107.239,1.262,1.262,0,0,1,.05.51,1.067,1.067,0,0,1-.02.123c-.009.041-.021.081-.034.12a1.263,1.263,0,0,1-.1.226A1.286,1.286,0,0,1,1154,672.768Z" transform="translate(-1123.085 -651.933)"/></g><g transform="translate(1729.148 148.228)"><path class="a" d="M760,558.128a2.662,2.662,0,0,1,.164.891,2.613,2.613,0,0,1-.124.829,2.172,2.172,0,0,1-.155.364c-.031.057-.064.111-.1.164a1.853,1.853,0,0,1-.112.154,1.612,1.612,0,0,1-.266.261,1.515,1.515,0,0,1-.5.268,1.528,1.528,0,0,1-.18.051,1.635,1.635,0,0,1-.373.035,2.034,2.034,0,0,1-.759-.154,2.532,2.532,0,0,1-.717-.433,2.676,2.676,0,0,1-.581-.7,2.394,2.394,0,0,1-.3-.854,2.17,2.17,0,0,1,.048-.862,2.082,2.082,0,0,1,.39-.761,2,2,0,0,1,1.567-.734,2.062,2.062,0,0,1,.216.011,1.891,1.891,0,0,1,.213.037,2.087,2.087,0,0,1,1.1.651A2.394,2.394,0,0,1,760,558.128Z" transform="translate(-755.983 -554.69)"/><path class="a" d="M804.13,543.983a2.514,2.514,0,0,1,0,.858,2.437,2.437,0,0,1-.255.751,2.056,2.056,0,0,1-.206.315,2.011,2.011,0,0,1-.251.261,1.555,1.555,0,0,1-.293.2l-.08.039c-.027.013-.054.025-.082.036a1.415,1.415,0,0,1-.171.057,1.763,1.763,0,0,1-1.389-.251c-.054-.034-.108-.071-.16-.11s-.1-.08-.153-.124a2.455,2.455,0,0,1-.281-.292,2.521,2.521,0,0,1-.421-.747,2.273,2.273,0,0,1-.133-.847,2.091,2.091,0,0,1,.056-.409q.024-.1.058-.2a1.935,1.935,0,0,1,.078-.187,1.992,1.992,0,0,1,.343-.5,1.73,1.73,0,0,1,.149-.14,2,2,0,0,1,.344-.232c.031-.017.063-.032.095-.047s.065-.028.1-.041a2.1,2.1,0,0,1,.206-.066,2.069,2.069,0,0,1,.211-.044c.035-.005.07-.01.105-.013l.106-.006a1.994,1.994,0,0,1,.413.031,1.784,1.784,0,0,1,.39.118,1.992,1.992,0,0,1,.354.2,1.9,1.9,0,0,1,.308.266,2.1,2.1,0,0,1,.252.328A2.265,2.265,0,0,1,804.13,543.983Z" transform="translate(-796.086 -541.638)"/><path class="a" d="M850.19,537.812a2.338,2.338,0,0,1-.5,1.453,1.831,1.831,0,0,1-.523.457,1.571,1.571,0,0,1-.307.138,1.372,1.372,0,0,1-.163.041l-.084.013c-.028,0-.057.008-.085.01a1.508,1.508,0,0,1-.663-.1,1.687,1.687,0,0,1-.306-.156,2.057,2.057,0,0,1-.281-.215,2.269,2.269,0,0,1-.46-.593,2.354,2.354,0,0,1-.26-.764,2.162,2.162,0,0,1,.023-.81,1.921,1.921,0,0,1,.314-.7,1.791,1.791,0,0,1,.254-.285,1.854,1.854,0,0,1,.31-.224,1.777,1.777,0,0,1,.75-.232c.034,0,.068-.005.1-.006l.1,0a1.866,1.866,0,0,1,.2.018,1.774,1.774,0,0,1,.376.1,1.844,1.844,0,0,1,.636.416A2.028,2.028,0,0,1,850.19,537.812Z" transform="translate(-837.995 -535.841)"/><path class="a" d="M896.68,539.84a2.2,2.2,0,0,1-.257.714,2.13,2.13,0,0,1-.444.549,1.853,1.853,0,0,1-.27.2,1.578,1.578,0,0,1-.292.14,1.44,1.44,0,0,1-.153.045c-.051.012-.1.021-.156.029a1.306,1.306,0,0,1-.321,0,1.406,1.406,0,0,1-.159-.027,1.288,1.288,0,0,1-.154-.042,1.394,1.394,0,0,1-.288-.136l-.067-.044-.066-.046q-.064-.048-.125-.1a1.821,1.821,0,0,1-.225-.248c-.034-.046-.067-.093-.1-.142s-.06-.1-.087-.151a2.2,2.2,0,0,1-.139-.331,2.221,2.221,0,0,1-.108-.752,2.032,2.032,0,0,1,.161-.743,1.865,1.865,0,0,1,.177-.32c.034-.05.071-.1.11-.144a1.682,1.682,0,0,1,.123-.13,1.756,1.756,0,0,1,.282-.219,1.728,1.728,0,0,1,.157-.087l.082-.038.084-.032a1.757,1.757,0,0,1,.354-.083,1.725,1.725,0,0,1,.186-.014,1.7,1.7,0,0,1,.189.01,1.778,1.778,0,0,1,.367.079,1.391,1.391,0,0,1,.17.068,1.761,1.761,0,0,1,.16.086,1.649,1.649,0,0,1,.517.489,1.818,1.818,0,0,1,.282.663A2.037,2.037,0,0,1,896.68,539.84Z" transform="translate(-880.331 -537.51)"/><path class="a" d="M942.126,549.974a2.062,2.062,0,0,1-.353.617,2.007,2.007,0,0,1-.5.432,1.68,1.68,0,0,1-.282.138,1.634,1.634,0,0,1-.293.079,1.319,1.319,0,0,1-.3.018,1.217,1.217,0,0,1-.149-.017,1.516,1.516,0,0,1-.148-.033,1.354,1.354,0,0,1-.522-.289,1.489,1.489,0,0,1-.206-.224c-.031-.041-.06-.085-.088-.129s-.054-.09-.078-.137a2.04,2.04,0,0,1-.165-1.343,1.8,1.8,0,0,1,.752-1.133q.07-.047.144-.086a1.576,1.576,0,0,1,.151-.068,1.635,1.635,0,0,1,.322-.089,1.54,1.54,0,0,1,.683.04,1.414,1.414,0,0,1,.167.057,1.657,1.657,0,0,1,.156.076,1.618,1.618,0,0,1,.278.195,1.486,1.486,0,0,1,.225.248,1.653,1.653,0,0,1,.169.288,1.686,1.686,0,0,1,.15.658A1.905,1.905,0,0,1,942.126,549.974Z" transform="translate(-921.748 -546.571)"/><path class="a" d="M985.151,567.9a1.887,1.887,0,0,1-.953.823,1.512,1.512,0,0,1-.565.1,1.507,1.507,0,0,1-.277-.034,1.165,1.165,0,0,1-.266-.1,1.375,1.375,0,0,1-.693-.865,1.9,1.9,0,0,1,.075-1.258,1.676,1.676,0,0,1,.88-.912,1.454,1.454,0,0,1,1.223.029,1.521,1.521,0,0,1,.273.175,1.427,1.427,0,0,1,.118.106,1.544,1.544,0,0,1,.1.119,1.5,1.5,0,0,1,.273.554A1.686,1.686,0,0,1,985.151,567.9Z" transform="translate(-960.99 -562.745)"/><path class="a" d="M1024.455,593.1a1.748,1.748,0,0,1-1,.6,1.45,1.45,0,0,1-.27.025,1.3,1.3,0,0,1-.264-.023,1.2,1.2,0,0,1-.476-.209,1.271,1.271,0,0,1-.489-.908,1.737,1.737,0,0,1,.28-1.132,1.57,1.57,0,0,1,.956-.683,1.35,1.35,0,0,1,1.105.23,1.3,1.3,0,0,1,.382.444,1.378,1.378,0,0,1,.108.265,1.425,1.425,0,0,1,.049.284A1.558,1.558,0,0,1,1024.455,593.1Z" transform="translate(-996.875 -585.559)"/><path class="a" d="M1058.837,624.828a1.63,1.63,0,0,1-.49.282,1.547,1.547,0,0,1-.518.1,1.362,1.362,0,0,1-.249-.022q-.061-.011-.119-.028a1.194,1.194,0,0,1-.116-.038,1.047,1.047,0,0,1-.4-.27,1.034,1.034,0,0,1-.242-.416,1.373,1.373,0,0,1-.05-.238,1.336,1.336,0,0,1,0-.25,1.545,1.545,0,0,1,.131-.511,1.618,1.618,0,0,1,.315-.469,1.532,1.532,0,0,1,.46-.331,1.368,1.368,0,0,1,.519-.125,1.332,1.332,0,0,1,.264.016,1.14,1.14,0,0,1,.254.07,1.217,1.217,0,0,1,.715.766,1.228,1.228,0,0,1,.034.127,1.253,1.253,0,0,1,.019.131,1.327,1.327,0,0,1,0,.264,1.371,1.371,0,0,1-.161.509A1.531,1.531,0,0,1,1058.837,624.828Z" transform="translate(-1028.309 -614.339)"/><path class="a" d="M1087.3,662.061a1.457,1.457,0,0,1-.968.18,1.2,1.2,0,0,1-.221-.06,1.081,1.081,0,0,1-.1-.045,1.106,1.106,0,0,1-.1-.053.959.959,0,0,1-.316-.309,1.086,1.086,0,0,1-.1-.2.984.984,0,0,1-.052-.215,1.093,1.093,0,0,1,0-.225,1.27,1.27,0,0,1,.037-.226,1.453,1.453,0,0,1,.563-.806,1.327,1.327,0,0,1,.956-.247,1.167,1.167,0,0,1,.234.057,1.153,1.153,0,0,1,.215.105,1.168,1.168,0,0,1,.191.149,1.031,1.031,0,0,1,.158.193,1.145,1.145,0,0,1,.177.578,1.166,1.166,0,0,1,0,.12,1.209,1.209,0,0,1-.045.237A1.322,1.322,0,0,1,1087.3,662.061Z" transform="translate(-1054.386 -648.156)"/></g><g transform="translate(1706 181.584)"><path class="d" d="M754.336,1144.615a2.438,2.438,0,0,1,.319-.851,2.479,2.479,0,0,1,.257-.352,2.7,2.7,0,0,1,.307-.3,2.309,2.309,0,0,1,.346-.234c.06-.033.122-.062.185-.091a2.031,2.031,0,0,1,.191-.075,1.907,1.907,0,0,1,.4-.089,1.874,1.874,0,0,1,.624.021,1.794,1.794,0,0,1,.2.048,1.9,1.9,0,0,1,.378.158,2.216,2.216,0,0,1,.645.516,2.481,2.481,0,0,1,.618,1.628,2.209,2.209,0,0,1-.182.889,2.168,2.168,0,0,1-.516.722,2.288,2.288,0,0,1-.782.462,2.47,2.47,0,0,1-.463.1c-.08.01-.162.016-.244.019s-.166,0-.249-.01a2.534,2.534,0,0,1-.486-.09,2.478,2.478,0,0,1-.439-.184q-.1-.055-.2-.12a2.058,2.058,0,0,1-.182-.141,2.268,2.268,0,0,1-.313-.326,2.037,2.037,0,0,1-.236-.378,2.146,2.146,0,0,1-.151-.42A2.214,2.214,0,0,1,754.336,1144.615Z" transform="translate(-731.313 -1118.777)"/><path class="d" d="M706.432,1136.866a2.306,2.306,0,0,1,.439-.74,2.363,2.363,0,0,1,.3-.285,2.5,2.5,0,0,1,.336-.224,2.176,2.176,0,0,1,.362-.161,2.317,2.317,0,0,1,.379-.09,1.82,1.82,0,0,1,.388-.017l.1.009c.033,0,.065.007.1.013a1.7,1.7,0,0,1,.2.041,2.036,2.036,0,0,1,1.209.944c.034.058.066.118.1.178s.057.122.081.185a2.343,2.343,0,0,1,.114.4,2.309,2.309,0,0,1,.005.86,2.1,2.1,0,0,1-.323.8,2.066,2.066,0,0,1-.271.323c-.051.049-.1.1-.159.139a1.968,1.968,0,0,1-.173.12,2.176,2.176,0,0,1-.59.254,1.916,1.916,0,0,1-.215.042,2.333,2.333,0,0,1-.448.021c-.038,0-.076,0-.115-.009s-.076-.01-.115-.017a2.288,2.288,0,0,1-.23-.051q-.115-.031-.224-.072c-.036-.014-.072-.028-.107-.044s-.07-.033-.1-.051a2.335,2.335,0,0,1-.377-.244,1.993,1.993,0,0,1-.31-.307,2.158,2.158,0,0,1-.236-.355,1.933,1.933,0,0,1-.155-.392,2.027,2.027,0,0,1-.071-.415A2.1,2.1,0,0,1,706.432,1136.866Z" transform="translate(-687.838 -1112.198)"/><path class="d" d="M661,1120.541a2.2,2.2,0,0,1,1.205-.983,1.994,1.994,0,0,1,.732-.108,1.892,1.892,0,0,1,.365.05,1.682,1.682,0,0,1,.178.054l.088.035.087.038a1.83,1.83,0,0,1,.589.446,1.878,1.878,0,0,1,.216.3c.031.054.061.108.088.164s.051.114.074.172a2.229,2.229,0,0,1,.138.758,2.155,2.155,0,0,1-.144.8,2,2,0,0,1-.438.685,1.914,1.914,0,0,1-.658.434q-.093.037-.19.065a1.686,1.686,0,0,1-.2.045,2.074,2.074,0,0,1-1.238-.176c-.034-.016-.067-.032-.1-.05l-.095-.056c-.062-.039-.122-.08-.179-.123a2.051,2.051,0,0,1-.308-.288,2.026,2.026,0,0,1-.394-.7A1.941,1.941,0,0,1,661,1120.541Z" transform="translate(-646.558 -1097.799)"/><path class="d" d="M619.515,1096.175a2.021,2.021,0,0,1,.59-.481,2.077,2.077,0,0,1,.687-.23,1.986,1.986,0,0,1,.351-.019,1.793,1.793,0,0,1,.346.042,1.677,1.677,0,0,1,.167.046c.055.019.109.041.162.063a1.592,1.592,0,0,1,.308.176,1.654,1.654,0,0,1,.139.113,1.5,1.5,0,0,1,.126.122,1.656,1.656,0,0,1,.207.28c.015.025.029.051.042.076s.027.051.04.077c.025.052.048.106.068.16a1.924,1.924,0,0,1,.091.341c.01.059.018.119.023.178s.008.119.008.18a2.049,2.049,0,0,1-.3,1.078,1.874,1.874,0,0,1-.522.556,1.829,1.829,0,0,1-.5.246,1.734,1.734,0,0,1-.181.045,1.874,1.874,0,0,1-.375.034q-.1,0-.191-.01l-.1-.013c-.032-.005-.063-.011-.095-.019a2.033,2.033,0,0,1-.375-.123c-.061-.027-.122-.057-.182-.09a2.035,2.035,0,0,1-.173-.114,2.1,2.1,0,0,1-.306-.271,1.566,1.566,0,0,1-.126-.154q-.058-.08-.108-.164a1.96,1.96,0,0,1-.162-.348,1.872,1.872,0,0,1-.084-.368,1.8,1.8,0,0,1,.059-.738A1.885,1.885,0,0,1,619.515,1096.175Z" transform="translate(-608.834 -1076.057)"/><path class="d" d="M583.307,1064.595a1.891,1.891,0,0,1,.623-.348,1.962,1.962,0,0,1,.67-.1,1.8,1.8,0,0,1,.328.039,1.885,1.885,0,0,1,.311.1,1.58,1.58,0,0,1,.288.155,1.551,1.551,0,0,1,.131.1c.042.036.084.074.124.114a1.644,1.644,0,0,1,.351.555,1.676,1.676,0,0,1,.086.316c.009.054.016.109.02.165s.007.11.007.165a1.922,1.922,0,0,1-.494,1.277,1.717,1.717,0,0,1-1.252.574c-.058,0-.117,0-.176-.005a1.631,1.631,0,0,1-.174-.025,1.8,1.8,0,0,1-.958-.523,1.622,1.622,0,0,1-.127-.145c-.039-.05-.074-.1-.107-.156a1.878,1.878,0,0,1-.163-.329,1.638,1.638,0,0,1-.089-.347,1.791,1.791,0,0,1-.018-.351,1.68,1.68,0,0,1,.177-.671A1.764,1.764,0,0,1,583.307,1064.595Z" transform="translate(-575.871 -1047.71)"/><path class="d" d="M553.526,1026.852a1.777,1.777,0,0,1,1.259-.2,1.649,1.649,0,0,1,.567.231,1.42,1.42,0,0,1,.122.09,1.5,1.5,0,0,1,.116.1,1.412,1.412,0,0,1,.2.24,1.585,1.585,0,0,1,.228,1.181,1.787,1.787,0,0,1-.668,1.086,1.646,1.646,0,0,1-.6.29,1.561,1.561,0,0,1-.644.025,1.655,1.655,0,0,1-1.1-.722,1.823,1.823,0,0,1-.165-.313,1.67,1.67,0,0,1-.057-.162c-.015-.055-.028-.11-.037-.166a1.647,1.647,0,0,1,.016-.656A1.612,1.612,0,0,1,553.526,1026.852Z" transform="translate(-548.726 -1013.715)"/><path class="d" d="M531.179,984.179a1.649,1.649,0,0,1,1.183.023,1.515,1.515,0,0,1,.253.132,1.429,1.429,0,0,1,.564,1.761,1.637,1.637,0,0,1-.791.877,1.5,1.5,0,0,1-1.187.078,1.564,1.564,0,0,1-1.012-1.465,1.561,1.561,0,0,1,.03-.305,1.543,1.543,0,0,1,.093-.289A1.488,1.488,0,0,1,531.179,984.179Z" transform="translate(-528.322 -975.189)"/><path class="d" d="M517.065,937.958a1.5,1.5,0,0,1,.567.01,1.511,1.511,0,0,1,.5.2,1.419,1.419,0,0,1,.209.162q.048.045.091.094c.029.032.057.066.084.1a1.318,1.318,0,0,1,.233,1.009,1.553,1.553,0,0,1-.07.252,1.428,1.428,0,0,1-.117.237,1.519,1.519,0,0,1-.361.4,1.488,1.488,0,0,1-.5.258,1.417,1.417,0,0,1-.567.046,1.363,1.363,0,0,1-.519-.177,1.411,1.411,0,0,1-.225-.164,1.284,1.284,0,0,1-.191-.208,1.436,1.436,0,0,1-.258-1.117q.013-.07.032-.138c.014-.045.029-.09.047-.133a1.422,1.422,0,0,1,.131-.246,1.367,1.367,0,0,1,.388-.387A1.411,1.411,0,0,1,517.065,937.958Z" transform="translate(-515.393 -933.394)"/><path class="d" d="M511.658,889.747a1.378,1.378,0,0,1,.929.362,1.3,1.3,0,0,1,.162.18q.036.048.067.1c.021.034.041.069.059.105a1.149,1.149,0,0,1,.121.471c0,.021,0,.042,0,.063s0,.042,0,.062a1.147,1.147,0,0,1-.074.355,1.237,1.237,0,0,1-.107.216,1.347,1.347,0,0,1-.143.194,1.371,1.371,0,0,1-.888.45,1.27,1.27,0,0,1-1.13-.481,1.308,1.308,0,0,1-.135-.218,1.348,1.348,0,0,1-.092-.246q-.017-.065-.028-.132c0-.023-.007-.045-.009-.068s0-.046,0-.069a1.359,1.359,0,0,1,.083-.526,1.211,1.211,0,0,1,.051-.118,1.316,1.316,0,0,1,.221-.311A1.262,1.262,0,0,1,511.658,889.747Z" transform="translate(-510.383 -889.747)"/></g></g></svg>