<?xml version="1.0" encoding="UTF-8"?><!DOCTYPE svg PUBLIC "-//W3C//DTD SVG 1.1//EN" "http://www.w3.org/Graphics/SVG/1.1/DTD/svg11.dtd"><svg xmlns="http://www.w3.org/2000/svg" xmlns:xlink="http://www.w3.org/1999/xlink"><defs><style>.a{fill:#01b5b7;}.b{fill:#fff;font-size:36px;font-family:Montserrat-Regular, Montserrat;}</style><style>.a{fill:#01b5b7;}</style></defs><symbol id="arrow-right" viewBox="0 0 16 9.149"><path class="a" d="M2.713,130.236l.715-.715a.434.434,0,0,1,.613,0l6.544,6.529,6.544-6.529a.434.434,0,0,1,.613,0l.715.715a.434.434,0,0,1,0,.613l-7.566,7.566a.434.434,0,0,1-.613,0l-7.566-7.566A.434.434,0,0,1,2.713,130.236Z" stroke="inherit" transform="translate(-2.586 -129.393)"/></symbol><symbol id="attach" viewBox="0 0 20 20">
<g opacity="inherit">
<path d="M17.8667 9.20786L10.2084 16.8662C9.27017 17.8044 7.99769 18.3315 6.67087 18.3315C5.34405 18.3315 4.07157 17.8044 3.13337 16.8662C2.19517 15.928 1.66809 14.6555 1.66809 13.3287C1.66809 12.0019 2.19517 10.7294 3.13337 9.79119L10.7917 2.13286C11.4172 1.50739 12.2655 1.15601 13.15 1.15601C14.0346 1.15601 14.8829 1.50739 15.5084 2.13286C16.1338 2.75833 16.4852 3.60665 16.4852 4.49119C16.4852 5.37574 16.1338 6.22406 15.5084 6.84953L7.8417 14.5079C7.52897 14.8206 7.10481 14.9963 6.66254 14.9963C6.22026 14.9963 5.79611 14.8206 5.48337 14.5079C5.17064 14.1951 4.99494 13.771 4.99494 13.3287C4.99494 12.8864 5.17064 12.4623 5.48337 12.1495L12.5584 5.08286" fill="#fff" stroke="#04a6a7" stroke-width="1.5"/>
</g>
</symbol><symbol id="close" viewBox="0 0 16 16.149">
  <g id="Group_316" data-name="Group 316" transform="translate(0)">
    <path id="chevron-up-regular" d="M18.459,137.7l-.715.715a.434.434,0,0,1-.613,0l-6.544-6.529-6.544,6.529a.434.434,0,0,1-.613,0l-.715-.715a.434.434,0,0,1,0-.613l7.566-7.566a.434.434,0,0,1,.613,0l7.566,7.566A.434.434,0,0,1,18.459,137.7Z" transform="translate(-2.586 -122.393)" fill="#01b5b7"/>
    <path id="chevron-up-regular-2" data-name="chevron-up-regular" d="M18.459,130.236l-.715-.715a.434.434,0,0,0-.613,0l-6.544,6.529-6.544-6.529a.434.434,0,0,0-.613,0l-.715.715a.434.434,0,0,0,0,.613l7.566,7.566a.434.434,0,0,0,.613,0l7.566-7.566A.434.434,0,0,0,18.459,130.236Z" transform="translate(-2.586 -129.393)" fill="#01b5b7"/>
  </g>
</symbol><symbol id="counter-bg" viewBox="0 0 80 80"><g transform="translate(-563 -1300)"><path class="a" d="M40,0A40,40,0,1,0,80,40,40,40,0,0,0,40,0Z" transform="translate(563 1300)"/><text class="b" transform="translate(594 1318)"><tspan x="-10.224" y="35">2</tspan></text></g></symbol><symbol id="fb" viewBox="0 0 32 32">
  <g id="Group_374" data-name="Group 374" transform="translate(23580 -8634)">
    <path id="facebook-f-brands_2_" data-name="facebook-f-brands(2)" d="M30.9,9l.444-2.9H28.564V4.225A1.448,1.448,0,0,1,30.2,2.661h1.263V.2A15.4,15.4,0,0,0,29.217,0a3.535,3.535,0,0,0-3.784,3.9V6.1H22.89V9h2.543v7h3.13V9Z" transform="translate(-23591.891 8642)" fill="#01b5b7"/>
    <g id="Component_41_1" data-name="Component 41 &#x2013; 1" transform="translate(-23580 8634)">
      <g id="Ellipse_44" data-name="Ellipse 44" fill="none" stroke="#01b5b7" stroke-width="2">
        <circle cx="16" cy="16" r="16" stroke="none"/>
        <circle cx="16" cy="16" r="15" fill="none"/>
      </g>
    </g>
  </g>
</symbol><symbol id="file" viewBox="0 0 20 20">
<path fill-rule="evenodd" clip-rule="evenodd" d="M17.5 0H2.5V20H17.5V0ZM12 12H5V13.5H12V12ZM5 15H10V16.5H5V15ZM16 1.5H12L16 5.5V1.5Z" fill="#04a6a7"/>
</symbol><symbol id="im" viewBox="0 0 32 32">
  <g id="Group_375" data-name="Group 375" transform="translate(23538 -8634)">
    <path id="instagram-brands_3_" data-name="instagram-brands(3)" d="M6.931,35.237a3.591,3.591,0,1,0,3.591,3.591A3.585,3.585,0,0,0,6.931,35.237Zm0,5.925a2.334,2.334,0,1,1,2.334-2.334,2.339,2.339,0,0,1-2.334,2.334Zm4.575-6.072a.838.838,0,1,1-.838-.838A.836.836,0,0,1,11.506,35.09Zm2.378.85a4.145,4.145,0,0,0-1.131-2.934,4.172,4.172,0,0,0-2.934-1.131c-1.156-.066-4.622-.066-5.778,0A4.166,4.166,0,0,0,1.105,33,4.158,4.158,0,0,0-.026,35.937c-.066,1.156-.066,4.622,0,5.778a4.145,4.145,0,0,0,1.131,2.934A4.177,4.177,0,0,0,4.04,45.781c1.156.066,4.622.066,5.778,0a4.145,4.145,0,0,0,2.934-1.131,4.172,4.172,0,0,0,1.131-2.934C13.949,40.559,13.949,37.1,13.884,35.94ZM12.39,42.956a2.363,2.363,0,0,1-1.331,1.331,15.434,15.434,0,0,1-4.128.281A15.555,15.555,0,0,1,2.8,44.287a2.363,2.363,0,0,1-1.331-1.331,15.434,15.434,0,0,1-.281-4.128A15.555,15.555,0,0,1,1.471,34.7,2.363,2.363,0,0,1,2.8,33.368a15.434,15.434,0,0,1,4.128-.281,15.555,15.555,0,0,1,4.128.281A2.363,2.363,0,0,1,12.39,34.7a15.434,15.434,0,0,1,.281,4.128A15.426,15.426,0,0,1,12.39,42.956Z" transform="translate(-23528.926 8611.175)" fill="#01b5b7"/>
    <g id="Ellipse_45" data-name="Ellipse 45" transform="translate(-23538 8634)" fill="none" stroke="#01b5b7" stroke-width="2">
      <circle cx="16" cy="16" r="16" stroke="none"/>
      <circle cx="16" cy="16" r="15" fill="none"/>
    </g>
  </g>
</symbol><symbol id="in" viewBox="0 0 32 32">
  <g id="Group_376" data-name="Group 376" transform="translate(23488 -8634)">
    <path id="linkedin-in-brands_1_" data-name="linkedin-in-brands(1)" d="M3.134,14.01H.231V4.663h2.9ZM1.681,3.388a1.689,1.689,0,1,1,1.681-1.7A1.7,1.7,0,0,1,1.681,3.388ZM14,14.01H11.1V9.46c0-1.084-.022-2.475-1.509-2.475-1.509,0-1.74,1.178-1.74,2.4V14.01h-2.9V4.663H7.736V5.938h.041a3.05,3.05,0,0,1,2.746-1.509C13.46,4.428,14,6.363,14,8.875V14.01Z" transform="translate(-23479 8641.99)" fill="#01b5b7"/>
    <g id="Ellipse_46" data-name="Ellipse 46" transform="translate(-23488 8634)" fill="none" stroke="#01b5b7" stroke-width="2">
      <circle cx="16" cy="16" r="16" stroke="none"/>
      <circle cx="16" cy="16" r="15" fill="none"/>
    </g>
  </g>
</symbol><symbol id="linkedin" viewBox="0 0 24 24"><path class="a" d="M22.286,32H1.709A1.722,1.722,0,0,0,0,33.73V54.27A1.722,1.722,0,0,0,1.709,56H22.286A1.726,1.726,0,0,0,24,54.27V33.73A1.726,1.726,0,0,0,22.286,32ZM7.254,52.571H3.7V41.118H7.259V52.571ZM5.475,39.554a2.063,2.063,0,1,1,2.063-2.062A2.063,2.063,0,0,1,5.475,39.554ZM20.588,52.571H17.03V47c0-1.329-.027-3.037-1.848-3.037-1.854,0-2.137,1.446-2.137,2.941v5.668H9.488V41.118H12.9v1.564h.048a3.747,3.747,0,0,1,3.37-1.848c3.6,0,4.27,2.373,4.27,5.459Z" transform="translate(0 -32)"/></symbol><symbol id="tw" viewBox="0 0 32 32">
  <g id="Group_377" data-name="Group 377" transform="translate(23446 -8634)">
    <path id="twitter-brands_1_" data-name="twitter-brands(1)" d="M14.355,51.321c.01.142.01.284.01.426a9.266,9.266,0,0,1-9.33,9.33A9.267,9.267,0,0,1,0,59.6a6.784,6.784,0,0,0,.792.041,6.567,6.567,0,0,0,4.071-1.4A3.285,3.285,0,0,1,1.8,55.97a4.135,4.135,0,0,0,.619.051,3.468,3.468,0,0,0,.863-.112A3.28,3.28,0,0,1,.65,52.691v-.041a3.3,3.3,0,0,0,1.482.416,3.284,3.284,0,0,1-1.015-4.386,9.321,9.321,0,0,0,6.761,3.431,3.7,3.7,0,0,1-.081-.751,3.282,3.282,0,0,1,5.675-2.244,6.456,6.456,0,0,0,2.081-.792,3.27,3.27,0,0,1-1.442,1.807A6.574,6.574,0,0,0,16,49.625,7.049,7.049,0,0,1,14.355,51.321Z" transform="translate(-23438 8595.918)" fill="#01b5b7"/>
    <g id="Ellipse_47" data-name="Ellipse 47" transform="translate(-23446 8634)" fill="none" stroke="#01b5b7" stroke-width="2">
      <circle cx="16" cy="16" r="16" stroke="none"/>
      <circle cx="16" cy="16" r="15" fill="none"/>
    </g>
  </g>
</symbol><symbol id="ytb" viewBox="0 0 32 32">
  <g id="Group_378" data-name="Group 378" transform="translate(23404 -8634)">
    <path id="youtube-brands" d="M31.643,65.878a2.144,2.144,0,0,0-1.509-1.519A50.679,50.679,0,0,0,23.466,64a50.679,50.679,0,0,0-6.668.359,2.145,2.145,0,0,0-1.509,1.519,24.145,24.145,0,0,0,0,8.269A2.112,2.112,0,0,0,16.8,75.641,50.677,50.677,0,0,0,23.466,76a50.677,50.677,0,0,0,6.668-.359,2.112,2.112,0,0,0,1.509-1.494,24.145,24.145,0,0,0,0-8.269ZM21.721,72.55V67.475l4.461,2.538L21.721,72.55Z" transform="translate(-23411.934 8580)" fill="#01b5b7"/>
    <g id="Ellipse_48" data-name="Ellipse 48" transform="translate(-23404 8634)" fill="none" stroke="#01b5b7" stroke-width="2">
      <circle cx="16" cy="16" r="16" stroke="none"/>
      <circle cx="16" cy="16" r="15" fill="none"/>
    </g>
  </g>
</symbol></svg>