<svg xmlns="http://www.w3.org/2000/svg" width="1377.917" height="663.933" viewBox="0 0 1377.917 663.933">
  <path id="Path_540" data-name="Path 540" d="M169.383,0A169.383,169.383,0,1,1,0,169.383,169.384,169.384,0,0,1,169.383,0Z" transform="translate(1138.373 184.844) rotate(45)" fill="#01b5b7"/>
  <path id="Path_541" data-name="Path 541" d="M24,0A24,24,0,1,1,0,24,24,24,0,0,1,24,0Z" transform="translate(1254.912 77) rotate(45)" fill="#8cc800"/>
  <path id="Path_562" data-name="Path 562" d="M16,0A16,16,0,1,1,0,16,16,16,0,0,1,16,0Z" transform="translate(1001.912) rotate(45)" fill="#e0e0e0"/>
  <path id="Path_542" data-name="Path 542" d="M48,0A48,48,0,1,1,0,48,48,48,0,0,1,48,0Z" transform="translate(67.882 150.229) rotate(45)" fill="#01b5b7"/>
  <path id="Path_543" data-name="Path 543" d="M8,0A8,8,0,1,1,0,8,8,8,0,0,1,8,0Z" transform="translate(1163.882 162.217) rotate(45)" fill="#01b5b7"/>
  <path id="Path_544" data-name="Path 544" d="M12,0A12,12,0,1,1,0,12,12,12,0,0,1,12,0Z" transform="translate(67.882 201.14) rotate(45)" fill="#01b5b7"/>
  <g id="Group_262" data-name="Group 262" transform="translate(-110.473 -2512.137)">
    <g id="Path_545" data-name="Path 545" transform="translate(1001.36 2546.179) rotate(45)" fill="none">
      <path d="M16,0A16,16,0,1,1,0,16,16,16,0,0,1,16,0Z" stroke="none"/>
      <path d="M 16 2 C 12.26045989990234 2 8.744749069213867 3.456249237060547 6.100500106811523 6.100500106811523 C 3.456249237060547 8.744749069213867 2 12.26045989990234 2 16 C 2 19.73954010009766 3.456249237060547 23.2552490234375 6.100500106811523 25.89949989318848 C 8.744749069213867 28.54375076293945 12.26045989990234 30 16 30 C 19.73954010009766 30 23.2552490234375 28.54375076293945 25.89949989318848 25.89949989318848 C 28.54375076293945 23.2552490234375 30 19.73954010009766 30 16 C 30 12.26045989990234 28.54375076293945 8.744749069213867 25.89949989318848 6.100500106811523 C 23.2552490234375 3.456249237060547 19.73954010009766 2 16 2 M 16 0 C 24.8365592956543 0 32 7.163440704345703 32 16 C 32 24.8365592956543 24.8365592956543 32 16 32 C 7.163440704345703 32 0 24.8365592956543 0 16 C 0 7.163440704345703 7.163440704345703 0 16 0 Z" stroke="none" fill="#01b5b7"/>
    </g>
    <g id="Path_546" data-name="Path 546" transform="translate(1001.36 2534.866) rotate(45)" fill="none">
      <path d="M24,0A24,24,0,1,1,0,24,24,24,0,0,1,24,0Z" stroke="none"/>
      <path d="M 24 2 C 21.02914047241211 2 18.1481990814209 2.581401824951172 15.43722152709961 3.728050231933594 C 12.81771850585938 4.836009979248047 10.46474075317383 6.422561645507812 8.443649291992188 8.443649291992188 C 6.422561645507812 10.46474075317383 4.836009979248047 12.81771850585938 3.728050231933594 15.43722152709961 C 2.581401824951172 18.1481990814209 2 21.02914047241211 2 24 C 2 26.97085952758789 2.581401824951172 29.8518009185791 3.728050231933594 32.56278228759766 C 4.836009979248047 35.18228149414062 6.422561645507812 37.53525924682617 8.443649291992188 39.55635070800781 C 10.46474075317383 41.57743835449219 12.81771850585938 43.16399002075195 15.43722152709961 44.27194976806641 C 18.1481990814209 45.41860198974609 21.02914047241211 46 24 46 C 26.97085952758789 46 29.8518009185791 45.41860198974609 32.56278228759766 44.27194976806641 C 35.18228149414062 43.16399002075195 37.53525924682617 41.57743835449219 39.55635070800781 39.55635070800781 C 41.57743835449219 37.53525924682617 43.16399002075195 35.18228149414062 44.27194976806641 32.56278228759766 C 45.41860198974609 29.8518009185791 46 26.97085952758789 46 24 C 46 21.02914047241211 45.41860198974609 18.1481990814209 44.27194976806641 15.43722152709961 C 43.16399002075195 12.81771850585938 41.57743835449219 10.46474075317383 39.55635070800781 8.443649291992188 C 37.53525924682617 6.422561645507812 35.18228149414062 4.836009979248047 32.56278228759766 3.728050231933594 C 29.8518009185791 2.581401824951172 26.97085952758789 2 24 2 M 24 0 C 37.25482940673828 0 48 10.74517059326172 48 24 C 48 37.25482940673828 37.25482940673828 48 24 48 C 10.74517059326172 48 0 37.25482940673828 0 24 C 0 10.74517059326172 10.74517059326172 0 24 0 Z" stroke="none" fill="#01b5b7"/>
    </g>
  </g>
</svg>
