<svg xmlns="http://www.w3.org/2000/svg" width="64" height="64" viewBox="0 0 64 64">
  <g id="Path_555" data-name="Path 555" fill="#E0E0E0">
    <path d="M32,0A32,32,0,1,1,0,32,32,32,0,0,1,32,0Z" stroke="none"/>
    <path d="M 32.0001220703125 2.000003814697266 C 27.94925308227539 2.000003814697266 24.02061080932617 2.792922973632812 20.32333374023438 4.356742858886719 C 16.75118255615234 5.867633819580078 13.54264068603516 8.031032562255859 10.78683090209961 10.78683090209961 C 8.031032562255859 13.54264068603516 5.867633819580078 16.75118255615234 4.356742858886719 20.32333374023438 C 2.792922973632812 24.02061080932617 2.000003814697266 27.94925308227539 2.000003814697266 32.0001220703125 C 2.000003814697266 36.05099487304688 2.792922973632812 39.97962951660156 4.356742858886719 43.67691040039062 C 5.867633819580078 47.24906158447266 8.031032562255859 50.45760345458984 10.78683090209961 53.21341323852539 C 13.54264068603516 55.96921157836914 16.75118255615234 58.13261413574219 20.32333374023438 59.64350128173828 C 24.02061080932617 61.20732116699219 27.94925308227539 62.00024032592773 32.0001220703125 62.00024032592773 C 36.05099487304688 62.00024032592773 39.97962951660156 61.20732116699219 43.67691040039062 59.64350128173828 C 47.24906158447266 58.13261413574219 50.45760345458984 55.96921157836914 53.21341323852539 53.21341323852539 C 55.96921157836914 50.45760345458984 58.13261413574219 47.24906158447266 59.64350128173828 43.67691040039062 C 61.20732116699219 39.97962951660156 62.00024032592773 36.05099487304688 62.00024032592773 32.0001220703125 C 62.00024032592773 27.94925308227539 61.20732116699219 24.02061080932617 59.64350128173828 20.32333374023438 C 58.13261413574219 16.75118255615234 55.96921157836914 13.54264068603516 53.21341323852539 10.78683090209961 C 50.45760345458984 8.031032562255859 47.24906158447266 5.867633819580078 43.67691040039062 4.356742858886719 C 39.97962951660156 2.792922973632812 36.05099487304688 2.000003814697266 32.0001220703125 2.000003814697266 M 32.0001220703125 0 C 49.67330169677734 0 64.000244140625 14.32694244384766 64.000244140625 32.0001220703125 C 64.000244140625 49.67330169677734 49.67330169677734 64.000244140625 32.0001220703125 64.000244140625 C 14.32694244384766 64.000244140625 0 49.67330169677734 0 32.0001220703125 C 0 14.32694244384766 14.32694244384766 0 32.0001220703125 0 Z" stroke="none" fill="#01b5b7"/>
  </g>
</svg>
