<svg xmlns="http://www.w3.org/2000/svg" xmlns:xlink="http://www.w3.org/1999/xlink" width="120" height="120" viewBox="0 0 120 120">
  <defs>
    <clipPath id="clip-path">
      <rect id="Rectangle_2" data-name="Rectangle 2" width="120" height="120" transform="translate(0 0.198)" fill="#212121"/>
    </clipPath>
  </defs>
  <g id="Mask_Group_2" data-name="Mask Group 2" transform="translate(0 -0.198)" clip-path="url(#clip-path)">
    <path id="logo-11" d="M33.653,66.192H60.677V39.167H33.653ZM55.476,50.079h-5.71v-5.71h5.71Zm-16.623-5.71h5.714V55.28H55.476v5.71H38.853Zm39.422-5.2A13.512,13.512,0,1,0,91.788,52.68,13.512,13.512,0,0,0,78.276,39.167Zm0,21.823a8.311,8.311,0,1,1,8.311-8.311,8.311,8.311,0,0,1-8.311,8.311Zm61.866-21.823a13.512,13.512,0,1,0,13.511,13.512A13.513,13.513,0,0,0,140.142,39.167Zm0,21.823a8.311,8.311,0,1,1,8.31-8.31,8.311,8.311,0,0,1-8.31,8.31ZM109.208,39.167A13.512,13.512,0,1,0,122.72,52.68a13.512,13.512,0,0,0-13.512-13.512Zm0,21.823A8.311,8.311,0,1,1,117.1,50.079h-7.889v5.2H117.1A8.323,8.323,0,0,1,109.208,60.99Z" transform="translate(-33.653 7.32)" fill="#212121"/>
  </g>
</svg>
