<svg xmlns="http://www.w3.org/2000/svg" xmlns:xlink="http://www.w3.org/1999/xlink" width="120" height="120" viewBox="0 0 120 120">
  <defs>
    <clipPath id="clip-path">
      <rect id="Rectangle_3" data-name="Rectangle 3" width="120" height="120" transform="translate(0 0.198)" fill="#212121"/>
    </clipPath>
  </defs>
  <g id="Mask_Group_3" data-name="Mask Group 3" transform="translate(0 -0.198)" clip-path="url(#clip-path)">
    <path id="logo-9" d="M71.441,44.6H67.317V33.578h4.124Zm-3.721-.4h3.319V33.98H67.72Zm9.46.4H73.138V33.578h8.443a5.065,5.065,0,0,1,3.394.957,3.713,3.713,0,0,1,1.191,3.075,3.917,3.917,0,0,1-.877,2.719,4.7,4.7,0,0,1-3.653,1.3c-.424.011-3.605,0-4.455,0Zm-3.641-.4h3.238V41.22h.2c.041,0,4.171.013,4.648,0a4.322,4.322,0,0,0,3.358-1.162h0a3.537,3.537,0,0,0,.773-2.449,3.339,3.339,0,0,0-1.047-2.765,4.694,4.694,0,0,0-3.136-.863H73.541Zm7.187-5.05H76.749v-3h4a1.7,1.7,0,0,1,1.53.586,1.611,1.611,0,0,1,.227.929,1.71,1.71,0,0,1-.189.872,1.744,1.744,0,0,1-1.595.612Zm-3.574-.4h3.574c.66,0,1.07-.138,1.251-.421a1.337,1.337,0,0,0,.131-.663,1.25,1.25,0,0,0-.15-.691l0-.007c-.192-.282-.573-.413-1.2-.413h-3.6Zm16.365,6.019c-3.617,0-5.775-.9-6.6-2.745a4.781,4.781,0,0,1-.272-1.107l-.035-.232h4.3l.028.169a1.122,1.122,0,0,0,.213.472c.17.205.737.55,2.619.55,2.262,0,2.262-.4,2.262-.611,0-.36-.262-.483-2.106-.68l-.35-.033c-.694-.065-1.572-.148-1.973-.183-3.383-.306-4.893-1.357-4.893-3.407,0-2.153,2.57-3.544,6.549-3.544,3.245,0,5.336.855,6.214,2.545a3.917,3.917,0,0,1,.413,1.258l.028.226H95.608l-.018-.182a.689.689,0,0,0-.174-.382c-.161-.216-.67-.573-2.251-.573-1.94,0-2.208.248-2.208.516,0,.357.613.483,2.578.694.819.067,2.136.2,2.587.257,2.836.308,4.1,1.333,4.1,3.326C100.225,42.771,99.061,44.766,93.517,44.766Zm-6.435-3.681a3.671,3.671,0,0,0,.207.776c.749,1.683,2.787,2.5,6.228,2.5,2.877,0,6.308-.564,6.308-3.263,0-1.766-1.12-2.641-3.745-2.926-.451-.055-1.76-.189-2.578-.257-2.094-.227-2.946-.348-2.946-1.094,0-.772.917-.918,2.611-.918,1.338,0,2.2.242,2.569.729a1.2,1.2,0,0,1,.222.408H99.45a3.631,3.631,0,0,0-.33-.895c-.805-1.546-2.773-2.329-5.857-2.329-3.733,0-6.146,1.233-6.146,3.141,0,1.82,1.354,2.719,4.526,3.006.4.035,1.28.118,1.976.184l.353.033c1.713.18,2.469.293,2.469,1.08,0,.847-.977,1.013-2.665,1.013-1.561,0-2.547-.234-2.928-.7a1.492,1.492,0,0,1-.261-.5Zm20.794,3.667c-4.2,0-6.524-1.7-6.524-4.789V33.578h4.069v6.386c0,1.059.948,1.667,2.6,1.667,1.579,0,2.559-.634,2.559-1.653v-6.4h4.027V40.3c0,2.828-2.452,4.45-6.734,4.45ZM101.755,33.98v5.983c0,3.816,3.833,4.386,6.122,4.386,2.367,0,6.335-.526,6.335-4.048V33.98H110.99v6c0,1.249-1.163,2.056-2.962,2.056-1.88,0-3-.773-3-2.069V33.98ZM131.675,44.6h-3.841V39.625L125.656,44.6h-3.35l-2.155-4.968V44.6H116.3V33.578h5.07L124,39.657l2.761-6.079h4.918Zm-3.438-.4h3.035V33.98h-4.255l-3.03,6.669L121.1,33.98h-4.4V44.2h3.049V37.7l2.819,6.506h2.819l2.849-6.5ZM15.348,33.779H11.68V44.4H21.816V41.574H15.348Zm13.872-.242c-4.682,0-7.145,2.219-7.145,5.477,0,3.681,2.585,5.548,7.145,5.548,5.02,0,7.131-2.165,7.131-5.548,0-3.435-2.382-5.479-7.131-5.479Zm-.014,2.76a7.6,7.6,0,0,1,.954.056l-4.1,4.1a3.255,3.255,0,0,1-.277-1.4c0-1.667.839-2.763,3.424-2.763Zm.014,5.548a7.619,7.619,0,0,1-.919-.052l4.108-4.108a3.2,3.2,0,0,1,.262,1.369c0,1.621-.773,2.789-3.451,2.789Zm14.4-1.45h3.775a1.724,1.724,0,0,1-.338.717,3.911,3.911,0,0,1-2.788.866,3.554,3.554,0,0,1-2.8-.934,3.007,3.007,0,0,1-.515-1.908,2.938,2.938,0,0,1,.555-1.989,3.486,3.486,0,0,1,2.734-.853,3.726,3.726,0,0,1,2.368.609,1.45,1.45,0,0,1,.474.677h3.5a3.609,3.609,0,0,0-.312-1.272c-.839-1.705-2.788-2.72-6.1-2.72-2.883,0-4.818.88-5.887,2.206a5.291,5.291,0,0,0-1.029,3.315,5.584,5.584,0,0,0,1.005,3.411c1.056,1.369,2.937,2.043,5.2,2.043a6.494,6.494,0,0,0,4.222-1.191l.1,1.028h2.909V38.109H43.619Zm15.32-6.861c-4.681,0-7.145,2.219-7.145,5.477,0,3.681,2.584,5.548,7.145,5.548,5.021,0,7.132-2.165,7.132-5.548,0-3.433-2.382-5.477-7.132-5.477Zm-.013,2.76a7.739,7.739,0,0,1,.929.053L55.77,40.435a3.268,3.268,0,0,1-.268-1.377c0-1.667.839-2.763,3.424-2.763Zm.013,5.548A7.6,7.6,0,0,1,58,41.789l4.122-4.122a3.183,3.183,0,0,1,.271,1.391c0,1.62-.768,2.787-3.45,2.787Z" transform="translate(-11.68 20.909)" fill="#212121"/>
  </g>
</svg>
