<svg xmlns="http://www.w3.org/2000/svg" xmlns:xlink="http://www.w3.org/1999/xlink" width="120" height="120" viewBox="0 0 120 120">
  <defs>
    <clipPath id="clip-path">
      <rect id="Rectangle_5" data-name="Rectangle 5" width="120" height="120" transform="translate(0 0.198)" fill="#212121"/>
    </clipPath>
  </defs>
  <g id="Mask_Group_4" data-name="Mask Group 4" transform="translate(0 -0.198)" clip-path="url(#clip-path)">
    <g id="logo-10" transform="translate(0 46.586)">
      <path id="Path_78" data-name="Path 78" d="M7.89,22.737V49.566h120V22.737ZM126.377,48.052H65.082v-23.8h61.295Z" transform="translate(-7.89 -22.737)" fill="#212121"/>
      <path id="Path_79" data-name="Path 79" d="M14.269,40.646v-8.92h3.078v6.544h5.43v2.375Z" transform="translate(-7.89 -22.737)" fill="#212121"/>
      <path id="Path_80" data-name="Path 80" d="M34.914,36.124c0,2.84-1.772,4.658-5.988,4.658-3.829,0-6-1.568-6-4.658,0-2.739,2.069-4.6,6-4.6C32.918,31.522,34.914,33.238,34.914,36.124Zm-3.09.034c0-1.286-.534-2.318-2.909-2.318-2.17,0-2.876.92-2.876,2.318,0,1.42.647,2.341,2.885,2.341s2.9-.977,2.9-2.341Z" transform="translate(-7.89 -22.737)" fill="#212121"/>
      <path id="Path_81" data-name="Path 81" d="M44.436,40.646l-.079-.864a5.448,5.448,0,0,1-3.545,1,5.335,5.335,0,0,1-4.363-1.715,4.692,4.692,0,0,1-.841-2.863,4.435,4.435,0,0,1,.866-2.784c.9-1.113,2.522-1.852,4.942-1.852,2.784,0,4.42.852,5.124,2.284a3.056,3.056,0,0,1,.262,1.068H43.857a1.211,1.211,0,0,0-.4-.568,3.131,3.131,0,0,0-1.989-.511,2.929,2.929,0,0,0-2.3.716,2.466,2.466,0,0,0-.465,1.67,2.524,2.524,0,0,0,.431,1.6,2.985,2.985,0,0,0,2.352.784,3.284,3.284,0,0,0,2.341-.727,1.427,1.427,0,0,0,.284-.605H40.949V35.363h5.93v5.283Z" transform="translate(-7.89 -22.737)" fill="#212121"/>
      <path id="Path_82" data-name="Path 82" d="M59.73,36.124c0,2.84-1.773,4.658-5.988,4.658-3.829,0-6-1.568-6-4.658,0-2.739,2.069-4.6,6-4.6C57.731,31.522,59.73,33.238,59.73,36.124Zm-3.09.034c0-1.286-.534-2.318-2.909-2.318-2.17,0-2.876.92-2.876,2.318,0,1.42.648,2.341,2.885,2.341s2.9-.977,2.9-2.341Z" transform="translate(-7.89 -22.737)" fill="#212121"/>
      <path id="Path_83" data-name="Path 83" d="M70.267,40.612v-8.92h2.195v8.92Z" transform="translate(-7.89 -22.737)" fill="#212121"/>
      <path id="Path_84" data-name="Path 84" d="M83.731,36.885a3.409,3.409,0,0,1-2.863,1.068l-4.057-.011v2.67H74.664v-8.92h6.205a3.562,3.562,0,0,1,2.761.9,3.287,3.287,0,0,1,.67,2.238,3.215,3.215,0,0,1-.569,2.057ZM81.97,33.977c-.227-.341-.717-.53-1.545-.53H76.8v2.715h3.6c.886,0,1.353-.182,1.569-.534a1.477,1.477,0,0,0,.159-.807A1.725,1.725,0,0,0,81.97,33.977Z" transform="translate(-7.89 -22.737)" fill="#212121"/>
      <path id="Path_85" data-name="Path 85" d="M90.628,40.748c-4.045,0-5.283-1.513-5.283-3.011h2.3c0,.739,1.011,1.3,3.09,1.3s2.613-.364,2.613-.955c0-.659-.409-.863-2.329-1.079-.378-.034-1.408-.159-1.795-.216-2.724-.307-3.773-1.114-3.773-2.557,0-1.523,1.535-2.67,4.863-2.67,3.613,0,5,1.42,5,2.9h-2.27c0-.75-.852-1.182-2.863-1.182-2.068,0-2.511.284-2.511.841,0,.58.454.761,2.649,1.022.5.069,1.613.194,1.92.227,2.319.238,3.364,1.079,3.364,2.568C95.593,39.7,94,40.748,90.628,40.748Z" transform="translate(-7.89 -22.737)" fill="#212121"/>
      <path id="Path_86" data-name="Path 86" d="M102.06,40.737c-2.965,0-4.9-1.171-4.9-3.632V31.692h2.17v5.442c0,1.125.921,1.874,2.818,1.874,1.715,0,2.739-.7,2.739-1.874V31.692h2.148v5.614C107.037,39.544,105.241,40.737,102.06,40.737Z" transform="translate(-7.89 -22.737)" fill="#212121"/>
      <path id="Path_87" data-name="Path 87" d="M118.8,40.612V34.658l-2.784,5.954H113.9l-2.7-5.954v5.954h-2.043v-8.92h2.768l3.068,6.795,3.136-6.795h2.724v8.92Z" transform="translate(-7.89 -22.737)" fill="#212121"/>
    </g>
  </g>
</svg>
