<svg xmlns="http://www.w3.org/2000/svg" xmlns:xlink="http://www.w3.org/1999/xlink" width="120" height="120" viewBox="0 0 120 120">
  <defs>
    <clipPath id="clip-path">
      <rect id="Rectangle_4" data-name="Rectangle 4" width="120" height="120" transform="translate(0 0.198)" fill="#212121"/>
    </clipPath>
  </defs>
  <g id="Mask_Group_5" data-name="Mask Group 5" transform="translate(0 -0.198)" clip-path="url(#clip-path)">
    <g id="logo-6" transform="translate(0 46.489)">
      <path id="Path_88" data-name="Path 88" d="M51.195,39.1h2.776V52.472H51.195Z" transform="translate(-22.256 -32.76)" fill="#212121"/>
      <path id="Path_89" data-name="Path 89" d="M55.526,47.891a4.858,4.858,0,1,1,4.831,4.858,4.794,4.794,0,0,1-4.831-4.858Zm6.959,0a2.11,2.11,0,1,0-2.11,2.165,2.054,2.054,0,0,0,2.091-2.165Z" transform="translate(-22.256 -32.76)" fill="#212121"/>
      <path id="Path_90" data-name="Path 90" d="M76.172,43.31v8.708c0,3.072-2.406,4.377-4.84,4.377a4.627,4.627,0,0,1-4.34-2.221l2.341-1.351a2.1,2.1,0,0,0,2.091,1.157A1.851,1.851,0,0,0,73.5,52.018v-.842a3.267,3.267,0,0,1-2.674,1.185,4.627,4.627,0,1,1,0-9.254A3.267,3.267,0,0,1,73.5,44.291v-.925Zm-2.674,4.4a2.221,2.221,0,1,0-2.221,2.128A2.073,2.073,0,0,0,73.5,47.706Z" transform="translate(-22.256 -32.76)" fill="#212121"/>
      <path id="Path_91" data-name="Path 91" d="M77.736,47.891a4.858,4.858,0,1,1,4.849,4.858,4.8,4.8,0,0,1-4.849-4.858Zm6.959,0a2.11,2.11,0,1,0-2.1,2.165,2.054,2.054,0,0,0,2.091-2.165Z" transform="translate(-22.256 -32.76)" fill="#212121"/>
      <path id="Path_92" data-name="Path 92" d="M88.721,40.858A1.647,1.647,0,1,1,90.368,42.5a1.666,1.666,0,0,1-1.647-1.647Zm.268,2.452h2.776v9.162H88.989Z" transform="translate(-22.256 -32.76)" fill="#212121"/>
      <path id="Path_93" data-name="Path 93" d="M103.648,47.891a4.627,4.627,0,0,1-4.414,4.858,3.443,3.443,0,0,1-2.776-1.12v4.525H93.681V43.31h2.776v.861a3.433,3.433,0,0,1,2.776-1.111A4.627,4.627,0,0,1,103.648,47.891Zm-2.776,0A2.184,2.184,0,1,0,98.7,50.13a2.091,2.091,0,0,0,2.175-2.24Z" transform="translate(-22.256 -32.76)" fill="#212121"/>
      <path id="Path_94" data-name="Path 94" d="M112.1,49.723c0,2.11-1.851,3.008-3.813,3.008a4.016,4.016,0,0,1-3.942-2.184l2.388-1.351a1.5,1.5,0,0,0,1.545,1.083c.657,0,.99-.2.99-.574,0-1.009-4.507-.472-4.507-3.646,0-2,1.684-3,3.591-3a4.016,4.016,0,0,1,3.628,1.953l-2.388,1.259a1.351,1.351,0,0,0-1.231-.805c-.481,0-.768.185-.768.509C107.59,47.03,112.1,46.336,112.1,49.723Z" transform="translate(-22.256 -32.76)" fill="#212121"/>
      <path id="Path_95" data-name="Path 95" d="M122.156,43.31v9.162H119.38v-.861a3.156,3.156,0,0,1-2.61,1.138c-1.851,0-3.433-1.323-3.433-3.794V43.31h2.776v5.229a1.518,1.518,0,0,0,1.6,1.666,1.621,1.621,0,0,0,1.7-1.851V43.31Z" transform="translate(-22.256 -32.76)" fill="#212121"/>
      <path id="Path_96" data-name="Path 96" d="M137.888,46.845v5.627h-2.776V47.086c0-.925-.435-1.5-1.314-1.5s-1.434.639-1.434,1.721v5.164h-2.776V47.086c0-.925-.435-1.5-1.314-1.5s-1.434.639-1.434,1.721v5.164h-2.776V43.31h2.776v.842A2.832,2.832,0,0,1,129.3,43.06a2.712,2.712,0,0,1,2.4,1.2,3.017,3.017,0,0,1,2.656-1.2C136.519,43.06,137.888,44.559,137.888,46.845Z" transform="translate(-22.256 -32.76)" fill="#212121"/>
      <path id="Path_97" data-name="Path 97" d="M34.657,36.693V32.76h-12.4V59.783h12.4V55.849a9.578,9.578,0,1,1,0-19.156Z" transform="translate(-22.256 -32.76)" fill="#212121"/>
      <path id="Path_98" data-name="Path 98" d="M34.657,36.693V55.849a9.578,9.578,0,1,0,0-19.156Z" transform="translate(-22.256 -32.76)" fill="#212121"/>
      <circle id="Ellipse_7" data-name="Ellipse 7" cx="2.036" cy="2.036" r="2.036" transform="translate(115.928 6.422)" fill="#212121"/>
    </g>
  </g>
</svg>
