<svg xmlns="http://www.w3.org/2000/svg" xmlns:xlink="http://www.w3.org/1999/xlink" width="120" height="120" viewBox="0 0 120 120">
  <defs>
    <clipPath id="clip-path">
      <rect id="Rectangle_7" data-name="Rectangle 7" width="120" height="120" transform="translate(0 0.198)" fill="#212121"/>
    </clipPath>
  </defs>
  <g id="Mask_Group_6" data-name="Mask Group 6" transform="translate(0 -0.198)" clip-path="url(#clip-path)">
    <g id="logo-2" transform="translate(0 46.143)">
      <path id="Path_99" data-name="Path 99" d="M52.267,44.465c.35,0,.467.126.467.467v7.7h3.959c.34,0,.467.126.467.467v.681c0,.34-.126.467-.467.467H51.479c-.34,0-.477-.126-.477-.467V44.932c0-.34.136-.467.477-.467Z" transform="translate(-26.469 -34.786)" fill="#212121"/>
      <path id="Path_100" data-name="Path 100" d="M60.613,47.86c0-2.247,1.42-3.6,3.891-3.6s3.891,1.352,3.891,3.6v3c0,2.247-1.43,3.6-3.891,3.6s-3.891-1.352-3.891-3.6Zm6.148,0c0-1.265-.788-1.946-2.208-1.946s-2.2.691-2.2,1.946v3.016c0,1.274.778,1.946,2.2,1.946s2.208-.7,2.208-1.946Z" transform="translate(-26.469 -34.786)" fill="#212121"/>
      <path id="Path_101" data-name="Path 101" d="M79.981,48.891c.379,0,.467.126.467.467v1.848a2.918,2.918,0,0,1-1.031,2.3,4.241,4.241,0,0,1-2.918.914c-2.519,0-3.891-1.352-3.891-3.6V47.8c0-2.218,1.42-3.58,3.891-3.58,1.946,0,3.21.768,3.745,2.305a.418.418,0,0,1-.292.6l-.759.263c-.331.117-.467.049-.584-.292A2,2,0,0,0,76.5,45.837c-1.43,0-2.208.691-2.208,1.946v3.093c0,1.274.788,1.946,2.208,1.946s2.3-.652,2.3-1.605V50.5H76.683c-.35,0-.477-.136-.477-.477v-.661c0-.34.126-.467.477-.467Z" transform="translate(-26.469 -34.786)" fill="#212121"/>
      <path id="Path_102" data-name="Path 102" d="M84.465,47.86c0-2.247,1.42-3.6,3.891-3.6s3.891,1.352,3.891,3.6v3c0,2.247-1.43,3.6-3.891,3.6s-3.891-1.352-3.891-3.6Zm6.138,0c0-1.265-.788-1.946-2.2-1.946S86.2,46.605,86.2,47.86v3.016c0,1.274.788,1.946,2.208,1.946s2.2-.7,2.2-1.946Z" transform="translate(-26.469 -34.786)" fill="#212121"/>
      <path id="Path_103" data-name="Path 103" d="M96.829,44.747c0-.214.068-.282.282-.282h.447c.214,0,.263.068.263.282v9.222c0,.214,0,.282-.263.282h-.447c-.214,0-.282-.068-.282-.282Z" transform="translate(-26.469 -34.786)" fill="#212121"/>
      <path id="Path_104" data-name="Path 104" d="M106.683,44.465a3.054,3.054,0,0,1,0,6.109h-2.918v3.395c0,.214-.049.282-.253.282h-.457c-.2,0-.282-.068-.282-.282V44.747c0-.214.078-.282.282-.282Zm-.088,5.146a2.121,2.121,0,1,0,0-4.241h-2.918v4.241Z" transform="translate(-26.469 -34.786)" fill="#212121"/>
      <path id="Path_105" data-name="Path 105" d="M117.335,44.27a3.512,3.512,0,0,1,3.619,2.121c.078.156,0,.282-.156.36l-.428.195c-.175.068-.243.058-.35-.126a2.646,2.646,0,0,0-2.685-1.6c-1.644,0-2.539.652-2.539,1.819a1.479,1.479,0,0,0,1.235,1.5,6.605,6.605,0,0,0,1.615.311,6.692,6.692,0,0,1,1.946.4,2.189,2.189,0,0,1,1.518,2.305c0,1.819-1.323,2.918-3.755,2.918a3.512,3.512,0,0,1-3.726-2.364.263.263,0,0,1,.165-.37l.428-.156a.263.263,0,0,1,.35.165,2.782,2.782,0,0,0,2.782,1.751c1.839,0,2.743-.642,2.743-1.946a1.449,1.449,0,0,0-1.138-1.488,6.809,6.809,0,0,0-1.547-.272l-1.051-.136a9.242,9.242,0,0,1-.973-.263,2.558,2.558,0,0,1-.866-.457,2.374,2.374,0,0,1-.778-1.858C113.813,45.379,115.088,44.27,117.335,44.27Z" transform="translate(-26.469 -34.786)" fill="#212121"/>
      <path id="Path_106" data-name="Path 106" d="M126.352,50.924a2.7,2.7,0,0,0,5.4,0V44.747c0-.214.068-.282.282-.282h.447c.214,0,.282.068.282.282v6.167c0,2.208-1.3,3.541-3.706,3.541s-3.706-1.333-3.706-3.541V44.747c0-.214.068-.282.272-.282h.457c.2,0,.272.068.272.282Z" transform="translate(-26.469 -34.786)" fill="#212121"/>
      <path id="Path_107" data-name="Path 107" d="M146.187,44.465c.214,0,.282.068.282.282v9.222c0,.214-.068.282-.282.282h-.409c-.2,0-.272-.068-.272-.282V48.356a18.063,18.063,0,0,1,.166-2.446l-.059,0a17.509,17.509,0,0,1-1.06,2.15l-2.091,3.687a.34.34,0,0,1-.321.214h-.272a.36.36,0,0,1-.331-.214l-2.121-3.726a15.633,15.633,0,0,1-.973-2.121h-.058a21.17,21.17,0,0,1,.156,2.461v5.6c0,.214-.068.282-.282.282h-.379c-.214,0-.282-.068-.282-.282V44.747c0-.214.068-.282.282-.282h.35a.389.389,0,0,1,.389.224l3.4,6.051,3.385-5.992c.107-.2.165-.233.379-.233Z" transform="translate(-26.469 -34.786)" fill="#212121"/>
      <path id="Path_108" data-name="Path 108" d="M34.961,52.091v7.033a1.017,1.017,0,0,1-2.033,0V52.1a1.722,1.722,0,0,0,.973.331,1.673,1.673,0,0,0,1.06-.34Zm8.658-2.033a.973.973,0,0,0-.973.973v1.226a1.017,1.017,0,1,0,2.033,0V51.08a.973.973,0,0,0-1.06-1.021Zm-12.9,4.7a1.751,1.751,0,0,1-.973-.331v7.053a1.021,1.021,0,1,0,2.043,0v-7a1.78,1.78,0,0,1-1.07.282Zm9.728-6.809a.973.973,0,0,0-1.021.973v5.418a1.021,1.021,0,0,0,2.043,0v-5.35a.973.973,0,0,0-1.07-1.021Zm-3.23,2.082A1.78,1.78,0,0,1,36.2,49.7V56.77a1.021,1.021,0,0,0,2.043,0V49.708a1.722,1.722,0,0,1-1.07.34Zm-8.706,5.418V35.691a.914.914,0,0,0-.914-.9h-.214a.914.914,0,0,0-.914.9V55.447a.914.914,0,0,0,.914.914H27.6A.914.914,0,0,0,28.512,55.447Zm2.315-1.44h-.214a.914.914,0,0,1-.914-.914V38.045a.914.914,0,0,1,.914-.9h.214a.914.914,0,0,1,.914.9V53.113a.914.914,0,0,1-.914.914Zm3.22-2.315h-.224a.9.9,0,0,1-.9-.9V40.379a.9.9,0,0,1,.9-.914h.224a.914.914,0,0,1,.9.914V50.788a.9.9,0,0,1-.9.9Zm3.22-2.383h-.2a.914.914,0,0,1-.914-.9V42.8a.914.914,0,0,1,.914-.973h.214a.914.914,0,0,1,.914.914v5.642a.914.914,0,0,1-.914.924Zm3.23-2.091h-.214a.914.914,0,0,1-.914-.914V44.854a.914.914,0,0,1,.914-.9H40.5a.914.914,0,0,1,.914.9V46.3a.914.914,0,0,1-.9.914Z" transform="translate(-26.469 -34.786)" fill="#212121"/>
    </g>
  </g>
</svg>
