<svg viewBox="0 0 20 20" fill="none" xmlns="http://www.w3.org/2000/svg">
<g opacity="inherit">
<path d="M17.8667 9.20786L10.2084 16.8662C9.27017 17.8044 7.99769 18.3315 6.67087 18.3315C5.34405 18.3315 4.07157 17.8044 3.13337 16.8662C2.19517 15.928 1.66809 14.6555 1.66809 13.3287C1.66809 12.0019 2.19517 10.7294 3.13337 9.79119L10.7917 2.13286C11.4172 1.50739 12.2655 1.15601 13.15 1.15601C14.0346 1.15601 14.8829 1.50739 15.5084 2.13286C16.1338 2.75833 16.4852 3.60665 16.4852 4.49119C16.4852 5.37574 16.1338 6.22406 15.5084 6.84953L7.8417 14.5079C7.52897 14.8206 7.10481 14.9963 6.66254 14.9963C6.22026 14.9963 5.79611 14.8206 5.48337 14.5079C5.17064 14.1951 4.99494 13.771 4.99494 13.3287C4.99494 12.8864 5.17064 12.4623 5.48337 12.1495L12.5584 5.08286" fill="#fff" stroke="#04a6a7" stroke-width="1.5"/>
</g>
</svg>
