<svg xmlns="http://www.w3.org/2000/svg" width="32" height="32" viewBox="0 0 32 32">
  <g id="Group_375" data-name="Group 375" transform="translate(23538 -8634)">
    <path id="instagram-brands_3_" data-name="instagram-brands(3)" d="M6.931,35.237a3.591,3.591,0,1,0,3.591,3.591A3.585,3.585,0,0,0,6.931,35.237Zm0,5.925a2.334,2.334,0,1,1,2.334-2.334,2.339,2.339,0,0,1-2.334,2.334Zm4.575-6.072a.838.838,0,1,1-.838-.838A.836.836,0,0,1,11.506,35.09Zm2.378.85a4.145,4.145,0,0,0-1.131-2.934,4.172,4.172,0,0,0-2.934-1.131c-1.156-.066-4.622-.066-5.778,0A4.166,4.166,0,0,0,1.105,33,4.158,4.158,0,0,0-.026,35.937c-.066,1.156-.066,4.622,0,5.778a4.145,4.145,0,0,0,1.131,2.934A4.177,4.177,0,0,0,4.04,45.781c1.156.066,4.622.066,5.778,0a4.145,4.145,0,0,0,2.934-1.131,4.172,4.172,0,0,0,1.131-2.934C13.949,40.559,13.949,37.1,13.884,35.94ZM12.39,42.956a2.363,2.363,0,0,1-1.331,1.331,15.434,15.434,0,0,1-4.128.281A15.555,15.555,0,0,1,2.8,44.287a2.363,2.363,0,0,1-1.331-1.331,15.434,15.434,0,0,1-.281-4.128A15.555,15.555,0,0,1,1.471,34.7,2.363,2.363,0,0,1,2.8,33.368a15.434,15.434,0,0,1,4.128-.281,15.555,15.555,0,0,1,4.128.281A2.363,2.363,0,0,1,12.39,34.7a15.434,15.434,0,0,1,.281,4.128A15.426,15.426,0,0,1,12.39,42.956Z" transform="translate(-23528.926 8611.175)" fill="#01b5b7"/>
    <g id="Ellipse_45" data-name="Ellipse 45" transform="translate(-23538 8634)" fill="none" stroke="#01b5b7" stroke-width="2">
      <circle cx="16" cy="16" r="16" stroke="none"/>
      <circle cx="16" cy="16" r="15" fill="none"/>
    </g>
  </g>
</svg>
