<svg xmlns="http://www.w3.org/2000/svg" width="32" height="32" viewBox="0 0 32 32">
  <g id="Group_378" data-name="Group 378" transform="translate(23404 -8634)">
    <path id="youtube-brands" d="M31.643,65.878a2.144,2.144,0,0,0-1.509-1.519A50.679,50.679,0,0,0,23.466,64a50.679,50.679,0,0,0-6.668.359,2.145,2.145,0,0,0-1.509,1.519,24.145,24.145,0,0,0,0,8.269A2.112,2.112,0,0,0,16.8,75.641,50.677,50.677,0,0,0,23.466,76a50.677,50.677,0,0,0,6.668-.359,2.112,2.112,0,0,0,1.509-1.494,24.145,24.145,0,0,0,0-8.269ZM21.721,72.55V67.475l4.461,2.538L21.721,72.55Z" transform="translate(-23411.934 8580)" fill="#01b5b7"/>
    <g id="Ellipse_48" data-name="Ellipse 48" transform="translate(-23404 8634)" fill="none" stroke="#01b5b7" stroke-width="2">
      <circle cx="16" cy="16" r="16" stroke="none"/>
      <circle cx="16" cy="16" r="15" fill="none"/>
    </g>
  </g>
</svg>
