<svg xmlns="http://www.w3.org/2000/svg" width="480" height="480" viewBox="0 0 480 480"><defs><style>.a{fill:none;}.b,.c{stroke:none;}.c{fill:#01b5b7;}</style></defs><g class="a"><path class="b" d="M240,0C107.452,0,0,107.452,0,240S107.452,480,240,480,480,372.548,480,240,372.548,0,240,0Z"/><path class="c" d="M 240 28 C 123.1028137207031 28 28 123.1028137207031 28 240 C 28 356.8971862792969 123.1028137207031 452 240 452 C 356.8971862792969 452 452 356.8971862792969 452 240 C 452 123.1028137207031 356.8971862792969 28 240 28 M 240 0 C 372.5483703613281 0 480 107.4516296386719 480 240 C 480 372.5483703613281 372.5483703613281 480 240 480 C 107.4516296386719 480 0 372.5483703613281 0 240 C 0 107.4516296386719 107.4516296386719 0 240 0 Z"/></g></svg>