<svg xmlns="http://www.w3.org/2000/svg" width="256.001" height="256.001" viewBox="0 0 256.001 256.001">
  <path id="Path_557" data-name="Path 557" d="M128,0A128,128,0,1,1,0,128,128,128,0,0,1,128,0Z" fill="#01b5b7"/>
  <path id="Path_552" data-name="Path 552" d="M96,0A96,96,0,1,1,0,96,96,96,0,0,1,96,0Z" transform="translate(32 32)" fill="#01b5b7"/>
  <path id="Path_554" data-name="Path 554" d="M24,0A24,24,0,1,1,0,24,24,24,0,0,1,24,0Z" transform="translate(104 104)" fill="#01b5b7"/>
  <path id="Path_559" data-name="Path 559" d="M64,0A64,64,0,1,1,0,64,64,64,0,0,1,64,0Z" transform="translate(64 64)" fill="#8cc800"/>
  <path id="Path_558" data-name="Path 558" d="M48,0A48,48,0,1,1,0,48,48,48,0,0,1,48,0Z" transform="translate(80 80)" fill="#e0e0e0"/>
  <path id="Path_560" data-name="Path 560" d="M16,0A16,16,0,1,1,0,16,16,16,0,0,1,16,0Z" transform="translate(112 112)" fill="#2c857f"/>
  <g id="Path_555" data-name="Path 555" transform="translate(96 96)" fill="none">
    <path d="M32,0A32,32,0,1,1,0,32,32,32,0,0,1,32,0Z" stroke="none"/>
    <path d="M 32.0001220703125 2.000003814697266 C 27.94925308227539 2.000003814697266 24.02061080932617 2.792922973632812 20.32333374023438 4.356742858886719 C 16.75118255615234 5.867633819580078 13.54264068603516 8.031032562255859 10.78683090209961 10.78683090209961 C 8.031032562255859 13.54264068603516 5.867633819580078 16.75118255615234 4.356742858886719 20.32333374023438 C 2.792922973632812 24.02061080932617 2.000003814697266 27.94925308227539 2.000003814697266 32.0001220703125 C 2.000003814697266 36.05099487304688 2.792922973632812 39.97962951660156 4.356742858886719 43.67691040039062 C 5.867633819580078 47.24906158447266 8.031032562255859 50.45760345458984 10.78683090209961 53.21341323852539 C 13.54264068603516 55.96921157836914 16.75118255615234 58.13261413574219 20.32333374023438 59.64350128173828 C 24.02061080932617 61.20732116699219 27.94925308227539 62.00024032592773 32.0001220703125 62.00024032592773 C 36.05099487304688 62.00024032592773 39.97962951660156 61.20732116699219 43.67691040039062 59.64350128173828 C 47.24906158447266 58.13261413574219 50.45760345458984 55.96921157836914 53.21341323852539 53.21341323852539 C 55.96921157836914 50.45760345458984 58.13261413574219 47.24906158447266 59.64350128173828 43.67691040039062 C 61.20732116699219 39.97962951660156 62.00024032592773 36.05099487304688 62.00024032592773 32.0001220703125 C 62.00024032592773 27.94925308227539 61.20732116699219 24.02061080932617 59.64350128173828 20.32333374023438 C 58.13261413574219 16.75118255615234 55.96921157836914 13.54264068603516 53.21341323852539 10.78683090209961 C 50.45760345458984 8.031032562255859 47.24906158447266 5.867633819580078 43.67691040039062 4.356742858886719 C 39.97962951660156 2.792922973632812 36.05099487304688 2.000003814697266 32.0001220703125 2.000003814697266 M 32.0001220703125 0 C 49.67330169677734 0 64.000244140625 14.32694244384766 64.000244140625 32.0001220703125 C 64.000244140625 49.67330169677734 49.67330169677734 64.000244140625 32.0001220703125 64.000244140625 C 14.32694244384766 64.000244140625 0 49.67330169677734 0 32.0001220703125 C 0 14.32694244384766 14.32694244384766 0 32.0001220703125 0 Z" stroke="none" fill="#01b5b7"/>
  </g>
  <g id="Path_556" data-name="Path 556" transform="translate(80 80)" fill="none">
    <path d="M48,0A48,48,0,1,1,0,48,48,48,0,0,1,48,0Z" stroke="none"/>
    <path d="M 48.00018310546875 2 C 41.78931045532227 2 35.76529693603516 3.215957641601562 30.09545135498047 5.614097595214844 C 24.61801147460938 7.930854797363281 19.69837188720703 11.24790954589844 15.47313690185547 15.47313690185547 C 11.24790954589844 19.69837188720703 7.930854797363281 24.61801147460938 5.614097595214844 30.09545135498047 C 3.215957641601562 35.76529693603516 2 41.78931045532227 2 48.00018310546875 C 2 54.21105575561523 3.215957641601562 60.23506927490234 5.614097595214844 65.9049072265625 C 7.930854797363281 71.38235473632812 11.24790954589844 76.302001953125 15.47313690185547 80.5272216796875 C 19.69837188720703 84.75245666503906 24.61801147460938 88.06951141357422 30.09545135498047 90.38626861572266 C 35.76529693603516 92.78440856933594 41.78931045532227 94.0003662109375 48.00018310546875 94.0003662109375 C 54.21105575561523 94.0003662109375 60.23506927490234 92.78440856933594 65.9049072265625 90.38626861572266 C 71.38235473632812 88.06951141357422 76.302001953125 84.75245666503906 80.5272216796875 80.5272216796875 C 84.75245666503906 76.302001953125 88.06951141357422 71.38235473632812 90.38626861572266 65.9049072265625 C 92.78440856933594 60.23506927490234 94.0003662109375 54.21105575561523 94.0003662109375 48.00018310546875 C 94.0003662109375 41.78931045532227 92.78440856933594 35.76529693603516 90.38626861572266 30.09545135498047 C 88.06951141357422 24.61801147460938 84.75245666503906 19.69837188720703 80.5272216796875 15.47313690185547 C 76.302001953125 11.24790954589844 71.38235473632812 7.930854797363281 65.9049072265625 5.614097595214844 C 60.23506927490234 3.215957641601562 54.21105575561523 2 48.00018310546875 2 M 48.00018310546875 0 C 74.50995635986328 0 96.0003662109375 21.49040985107422 96.0003662109375 48.00018310546875 C 96.0003662109375 74.50995635986328 74.50995635986328 96.0003662109375 48.00018310546875 96.0003662109375 C 21.49040985107422 96.0003662109375 0 74.50995635986328 0 48.00018310546875 C 0 21.49040985107422 21.49040985107422 0 48.00018310546875 0 Z" stroke="none" fill="#01b5b7"/>
  </g>
</svg>
