<svg xmlns="http://www.w3.org/2000/svg" width="480" height="533" viewBox="0 0 480 533">
  <g id="Group_299" data-name="Group 299" transform="translate(106 -1338)">
    <g id="Path_545" data-name="Path 545" transform="translate(282 1831)" fill="none">
      <path d="M16,0A16,16,0,1,0,32,16,16,16,0,0,0,16,0Z" stroke="none"/>
      <path d="M 16 2 C 12.26045989990234 2 8.744749069213867 3.456249237060547 6.100500106811523 6.100500106811523 C 3.456249237060547 8.744749069213867 2 12.26045989990234 2 16 C 2 19.73954010009766 3.456249237060547 23.2552490234375 6.100500106811523 25.89949989318848 C 8.744749069213867 28.54375076293945 12.26045989990234 30 16 30 C 19.73954010009766 30 23.2552490234375 28.54375076293945 25.89949989318848 25.89949989318848 C 28.54375076293945 23.2552490234375 30 19.73954010009766 30 16 C 30 12.26045989990234 28.54375076293945 8.744749069213867 25.89949989318848 6.100500106811523 C 23.2552490234375 3.456249237060547 19.73954010009766 2 16 2 M 16 0 C 24.8365592956543 0 32 7.163440704345703 32 16 C 32 24.8365592956543 24.8365592956543 32 16 32 C 7.163440704345703 32 0 24.8365592956543 0 16 C 0 7.163440704345703 7.163440704345703 0 16 0 Z" stroke="none" fill="#01b5b7"/>
    </g>
    <g id="Path_546" data-name="Path 546" transform="translate(274 1823)" fill="none">
      <path d="M24,0A24,24,0,1,0,48,24,24,24,0,0,0,24,0Z" stroke="none"/>
      <path d="M 24 2 C 21.02914047241211 2 18.1481990814209 2.581401824951172 15.43722152709961 3.728050231933594 C 12.81771850585938 4.836009979248047 10.46474075317383 6.422561645507812 8.443649291992188 8.443649291992188 C 6.422561645507812 10.46474075317383 4.836009979248047 12.81771850585938 3.728050231933594 15.43722152709961 C 2.581401824951172 18.1481990814209 2 21.02914047241211 2 24 C 2 26.97085952758789 2.581401824951172 29.8518009185791 3.728050231933594 32.56278228759766 C 4.836009979248047 35.18228149414062 6.422561645507812 37.53525924682617 8.443649291992188 39.55635070800781 C 10.46474075317383 41.57743835449219 12.81771850585938 43.16399002075195 15.43722152709961 44.27194976806641 C 18.1481990814209 45.41860198974609 21.02914047241211 46 24 46 C 26.97085952758789 46 29.8518009185791 45.41860198974609 32.56278228759766 44.27194976806641 C 35.18228149414062 43.16399002075195 37.53525924682617 41.57743835449219 39.55635070800781 39.55635070800781 C 41.57743835449219 37.53525924682617 43.16399002075195 35.18228149414062 44.27194976806641 32.56278228759766 C 45.41860198974609 29.8518009185791 46 26.97085952758789 46 24 C 46 21.02914047241211 45.41860198974609 18.1481990814209 44.27194976806641 15.43722152709961 C 43.16399002075195 12.81771850585938 41.57743835449219 10.46474075317383 39.55635070800781 8.443649291992188 C 37.53525924682617 6.422561645507812 35.18228149414062 4.836009979248047 32.56278228759766 3.728050231933594 C 29.8518009185791 2.581401824951172 26.97085952758789 2 24 2 M 24 0 C 37.25482940673828 0 48 10.74517059326172 48 24 C 48 37.25482940673828 37.25482940673828 48 24 48 C 10.74517059326172 48 0 37.25482940673828 0 24 C 0 10.74517059326172 10.74517059326172 0 24 0 Z" stroke="none" fill="#01b5b7"/>
    </g>
  </g>
  <path id="Path_543" data-name="Path 543" d="M8,0a8,8,0,1,0,8,8A8,8,0,0,0,8,0Z" transform="translate(256 501)" fill="#01b5b7"/>
  <g id="Path_540" data-name="Path 540" fill="none">
    <path d="M240,0C107.452,0,0,107.452,0,240A239.9,239.9,0,0,0,240,480c132.548,0,240-107.452,240-240S372.548,0,240,0Z" stroke="none"/>
    <path d="M 240 28 C 123.1028137207031 28 28 123.1028137207031 28 240 C 28 314.3506469726562 67.75772094726562 384.2145385742188 131.7579040527344 422.3277282714844 C 164.3542785644531 441.7395324707031 201.7837219238281 452 240 452 C 356.8971862792969 452 452 356.8971862792969 452 240 C 452 123.1028137207031 356.8971862792969 28 240 28 M 240 0 C 372.5483703613281 0 480 107.4516296386719 480 240 C 480 372.5483703613281 372.5483703613281 480 240 480 C 195.1986389160156 480 153.2644653320312 467.7242736816406 117.4313659667969 446.385009765625 C 47.08999633789062 404.4955444335938 0 327.7470092773438 0 240 C 0 107.4516296386719 107.4516296386719 0 240 0 Z" stroke="none" fill="#01b5b7"/>
  </g>
  <path id="Path_541" data-name="Path 541" d="M24,0A24,24,0,1,0,48,24,24,24,0,0,0,24,0Z" transform="translate(297 445)" fill="#8cc800"/>
</svg>
