<svg xmlns="http://www.w3.org/2000/svg" width="96" height="96" viewBox="0 0 96 96">
  <g id="Path_556" data-name="Path 556" fill="#E0E0E0">
    <path d="M48,0A48,48,0,1,1,0,48,48,48,0,0,1,48,0Z" stroke="none"/>
    <path d="M 48.00018310546875 2 C 41.78931045532227 2 35.76529693603516 3.215957641601562 30.09545135498047 5.614097595214844 C 24.61801147460938 7.930854797363281 19.69837188720703 11.24790954589844 15.47313690185547 15.47313690185547 C 11.24790954589844 19.69837188720703 7.930854797363281 24.61801147460938 5.614097595214844 30.09545135498047 C 3.215957641601562 35.76529693603516 2 41.78931045532227 2 48.00018310546875 C 2 54.21105575561523 3.215957641601562 60.23506927490234 5.614097595214844 65.9049072265625 C 7.930854797363281 71.38235473632812 11.24790954589844 76.302001953125 15.47313690185547 80.5272216796875 C 19.69837188720703 84.75245666503906 24.61801147460938 88.06951141357422 30.09545135498047 90.38626861572266 C 35.76529693603516 92.78440856933594 41.78931045532227 94.0003662109375 48.00018310546875 94.0003662109375 C 54.21105575561523 94.0003662109375 60.23506927490234 92.78440856933594 65.9049072265625 90.38626861572266 C 71.38235473632812 88.06951141357422 76.302001953125 84.75245666503906 80.5272216796875 80.5272216796875 C 84.75245666503906 76.302001953125 88.06951141357422 71.38235473632812 90.38626861572266 65.9049072265625 C 92.78440856933594 60.23506927490234 94.0003662109375 54.21105575561523 94.0003662109375 48.00018310546875 C 94.0003662109375 41.78931045532227 92.78440856933594 35.76529693603516 90.38626861572266 30.09545135498047 C 88.06951141357422 24.61801147460938 84.75245666503906 19.69837188720703 80.5272216796875 15.47313690185547 C 76.302001953125 11.24790954589844 71.38235473632812 7.930854797363281 65.9049072265625 5.614097595214844 C 60.23506927490234 3.215957641601562 54.21105575561523 2 48.00018310546875 2 M 48.00018310546875 0 C 74.50995635986328 0 96.0003662109375 21.49040985107422 96.0003662109375 48.00018310546875 C 96.0003662109375 74.50995635986328 74.50995635986328 96.0003662109375 48.00018310546875 96.0003662109375 C 21.49040985107422 96.0003662109375 0 74.50995635986328 0 48.00018310546875 C 0 21.49040985107422 21.49040985107422 0 48.00018310546875 0 Z" stroke="none" fill="#01b5b7"/>
  </g>
</svg>
