<svg xmlns="http://www.w3.org/2000/svg" width="16" height="16.149" viewBox="0 0 16 16.149">
  <g id="Group_316" data-name="Group 316" transform="translate(-856 -1269)">
    <path id="chevron-up-regular" d="M18.459,137.7l-.715.715a.434.434,0,0,1-.613,0l-6.544-6.529-6.544,6.529a.434.434,0,0,1-.613,0l-.715-.715a.434.434,0,0,1,0-.613l7.566-7.566a.434.434,0,0,1,.613,0l7.566,7.566A.434.434,0,0,1,18.459,137.7Z" transform="translate(853.414 1146.607)" fill="#01b5b7"/>
    <path id="chevron-up-regular-2" data-name="chevron-up-regular" d="M18.459,130.236l-.715-.715a.434.434,0,0,0-.613,0l-6.544,6.529-6.544-6.529a.434.434,0,0,0-.613,0l-.715.715a.434.434,0,0,0,0,.613l7.566,7.566a.434.434,0,0,0,.613,0l7.566-7.566A.434.434,0,0,0,18.459,130.236Z" transform="translate(853.414 1139.607)" fill="#01b5b7"/>
  </g>
</svg>
