<svg xmlns="http://www.w3.org/2000/svg" width="780" height="780" viewBox="0 0 780 780">
  <g id="Path_578" data-name="Path 578" fill="none">
    <path d="M390,0C174.609,0,0,174.609,0,390S174.609,780,390,780,780,605.391,780,390,605.391,0,390,0Z" stroke="none"/>
    <path d="M 390 2 C 376.7640991210938 2 363.4161071777344 2.67401123046875 350.3268127441406 4.0032958984375 C 337.4276123046875 5.31329345703125 324.4660949707031 7.2913818359375 311.8023071289062 9.8828125 C 286.8913879394531 14.98028564453125 262.3883056640625 22.58648681640625 238.9735107421875 32.4901123046875 C 215.9832763671875 42.21417236328125 193.80908203125 54.2498779296875 173.06689453125 68.26312255859375 C 152.5211791992188 82.14349365234375 133.2008056640625 98.08428955078125 115.642578125 115.642578125 C 98.08428955078125 133.200927734375 82.14349365234375 152.5211791992188 68.26312255859375 173.06689453125 C 54.2498779296875 193.8092041015625 42.21417236328125 215.9833984375 32.4901123046875 238.9735107421875 C 22.58648681640625 262.3883056640625 14.98028564453125 286.8915100097656 9.8828125 311.8023986816406 C 7.2913818359375 324.4660949707031 5.31329345703125 337.4276123046875 4.0032958984375 350.3268127441406 C 2.67401123046875 363.4161071777344 2 376.7640991210938 2 390 C 2 403.2359008789062 2.67401123046875 416.5838928222656 4.0032958984375 429.6731872558594 C 5.31329345703125 442.5723876953125 7.2913818359375 455.5339050292969 9.8828125 468.1976013183594 C 14.98028564453125 493.1084899902344 22.58648681640625 517.6116943359375 32.4901123046875 541.0264892578125 C 42.21417236328125 564.0166015625 54.2498779296875 586.1907958984375 68.26312255859375 606.93310546875 C 82.14349365234375 627.4788208007812 98.08428955078125 646.799072265625 115.642578125 664.357421875 C 133.2008056640625 681.9157104492188 152.5211791992188 697.8565063476562 173.06689453125 711.7368774414062 C 193.80908203125 725.7501220703125 215.9832763671875 737.7858276367188 238.9735107421875 747.5098876953125 C 262.3883056640625 757.4135131835938 286.8913879394531 765.0197143554688 311.8023071289062 770.1171875 C 324.4660949707031 772.7086181640625 337.4276123046875 774.6867065429688 350.3268127441406 775.9967041015625 C 363.4161071777344 777.3259887695312 376.7640991210938 778 390 778 C 403.2359008789062 778 416.5838928222656 777.3259887695312 429.6731872558594 775.9967041015625 C 442.5723876953125 774.6867065429688 455.5339050292969 772.7086181640625 468.1976013183594 770.1171875 C 493.1084899902344 765.0197143554688 517.6116943359375 757.4135131835938 541.0264892578125 747.5098876953125 C 564.0166015625 737.7858276367188 586.1907958984375 725.7501220703125 606.93310546875 711.7368774414062 C 627.4788208007812 697.8565063476562 646.799072265625 681.9157104492188 664.357421875 664.357421875 C 681.9157104492188 646.799072265625 697.8565063476562 627.4788208007812 711.7368774414062 606.93310546875 C 725.7501220703125 586.1907958984375 737.7858276367188 564.0166015625 747.5098876953125 541.0264892578125 C 757.4135131835938 517.6116943359375 765.0197143554688 493.1084899902344 770.1171875 468.1976013183594 C 772.7086181640625 455.5339050292969 774.6867065429688 442.5723876953125 775.9967041015625 429.6731872558594 C 777.3259887695312 416.5838928222656 778 403.2359008789062 778 390 C 778 376.7640991210938 777.3259887695312 363.4161071777344 775.9967041015625 350.3268127441406 C 774.6867065429688 337.4276123046875 772.7086181640625 324.4660949707031 770.1171875 311.8023986816406 C 765.0197143554688 286.8915100097656 757.4135131835938 262.3883056640625 747.5098876953125 238.9735107421875 C 737.7858276367188 215.9833984375 725.7501220703125 193.8092041015625 711.7368774414062 173.06689453125 C 697.8565063476562 152.5211791992188 681.9157104492188 133.200927734375 664.357421875 115.642578125 C 646.799072265625 98.08428955078125 627.4788208007812 82.14349365234375 606.93310546875 68.26312255859375 C 586.1907958984375 54.2498779296875 564.0166015625 42.21417236328125 541.0264892578125 32.4901123046875 C 517.6116943359375 22.58648681640625 493.1084899902344 14.98028564453125 468.1976013183594 9.8828125 C 455.5339050292969 7.2913818359375 442.5723876953125 5.31329345703125 429.6731872558594 4.0032958984375 C 416.5838928222656 2.67401123046875 403.2359008789062 2 390 2 M 390 0 C 605.3909912109375 0 780 174.6090087890625 780 390 C 780 605.3909912109375 605.3909912109375 780 390 780 C 174.60888671875 780 0 605.3909912109375 0 390 C 0 174.6090087890625 174.60888671875 0 390 0 Z" stroke="none" fill="#e0e0e0"/>
  </g>
</svg>
