<svg xmlns="http://www.w3.org/2000/svg" width="1116" height="1116" viewBox="0 0 1116 1116">
  <g id="Path_545" data-name="Path 545" transform="translate(558 118.706) rotate(45)" fill="none">
    <path d="M310.628,0C482.183,0,621.256,139.073,621.256,310.628S482.183,621.256,310.628,621.256,0,482.183,0,310.628,139.073,0,310.628,0Z" stroke="none"/>
    <path d="M 310.6277770996094 2 C 289.6864624023438 2 268.7589416503906 4.109619140625 248.4263916015625 8.270263671875 C 228.6116333007812 12.324951171875 209.1212463378906 18.37506103515625 190.4965515136719 26.252685546875 C 172.20947265625 33.98748779296875 154.5714721679688 43.56109619140625 138.0724792480469 54.7076416015625 C 121.7296142578125 65.74853515625 106.361572265625 78.428466796875 92.39501953125 92.39501953125 C 78.428466796875 106.361572265625 65.74853515625 121.7296142578125 54.7076416015625 138.0724792480469 C 43.56109619140625 154.5714721679688 33.98748779296875 172.20947265625 26.252685546875 190.4965515136719 C 18.37506103515625 209.1212463378906 12.324951171875 228.6116333007812 8.270263671875 248.4263916015625 C 4.109619140625 268.7589416503906 2 289.6864624023438 2 310.6277770996094 C 2 331.569091796875 4.109619140625 352.4966125488281 8.270263671875 372.8291625976562 C 12.324951171875 392.6438598632812 18.37506103515625 412.1343383789062 26.252685546875 430.7590026855469 C 33.98748779296875 449.0460205078125 43.56109619140625 466.6840209960938 54.7076416015625 483.18310546875 C 65.74853515625 499.5258483886719 78.428466796875 514.8939819335938 92.39501953125 528.8605346679688 C 106.361572265625 542.8270874023438 121.7296142578125 555.5069580078125 138.0724792480469 566.5479125976562 C 154.5714721679688 577.6944580078125 172.20947265625 587.26806640625 190.4965515136719 595.0028686523438 C 209.1212463378906 602.8804931640625 228.6116333007812 608.9306030273438 248.4263916015625 612.9852905273438 C 268.7589416503906 617.1459350585938 289.6864624023438 619.2555541992188 310.6277770996094 619.2555541992188 C 331.569091796875 619.2555541992188 352.4966125488281 617.1459350585938 372.8291625976562 612.9852905273438 C 392.6438598632812 608.9306030273438 412.1343383789062 602.8804931640625 430.7590026855469 595.0028686523438 C 449.0460205078125 587.26806640625 466.6840209960938 577.6944580078125 483.18310546875 566.5479125976562 C 499.5258483886719 555.5069580078125 514.8939819335938 542.8270874023438 528.8605346679688 528.8605346679688 C 542.8270874023438 514.8939819335938 555.5069580078125 499.5258483886719 566.5479125976562 483.18310546875 C 577.6944580078125 466.6840209960938 587.26806640625 449.0460205078125 595.0028686523438 430.7590026855469 C 602.8804931640625 412.1343383789062 608.9306030273438 392.6438598632812 612.9852905273438 372.8291625976562 C 617.1459350585938 352.4966125488281 619.2555541992188 331.569091796875 619.2555541992188 310.6277770996094 C 619.2555541992188 289.6864624023438 617.1459350585938 268.7589416503906 612.9852905273438 248.4263916015625 C 608.9306030273438 228.6116333007812 602.8804931640625 209.1212463378906 595.0028686523438 190.4965515136719 C 587.26806640625 172.20947265625 577.6944580078125 154.5714721679688 566.5479125976562 138.0724792480469 C 555.5069580078125 121.7296142578125 542.8270874023438 106.361572265625 528.8605346679688 92.39501953125 C 514.8939819335938 78.428466796875 499.5258483886719 65.74853515625 483.18310546875 54.7076416015625 C 466.6840209960938 43.56109619140625 449.0460205078125 33.98748779296875 430.7590026855469 26.252685546875 C 412.1343383789062 18.37506103515625 392.6438598632812 12.324951171875 372.8291625976562 8.270263671875 C 352.4966125488281 4.109619140625 331.569091796875 2 310.6277770996094 2 M 310.6277770996094 0 C 482.1826782226562 0 621.2555541992188 139.0727844238281 621.2555541992188 310.6277770996094 C 621.2555541992188 482.1826782226562 482.1826782226562 621.2555541992188 310.6277770996094 621.2555541992188 C 139.0727844238281 621.2555541992188 0 482.1826782226562 0 310.6277770996094 C 0 139.0727844238281 139.0727844238281 0 310.6277770996094 0 Z" stroke="none" fill="#01b5b7"/>
  </g>
  <g id="Path_546" data-name="Path 546" transform="translate(558) rotate(45)" fill="none">
    <path d="M394.565,0C612.478,0,789.131,176.653,789.131,394.565S612.478,789.131,394.565,789.131,0,612.478,0,394.565,176.653,0,394.565,0Z" stroke="none"/>
    <path d="M 394.5654296875 2 C 381.173828125 2 367.6687316894531 2.68194580078125 354.425537109375 4.02691650390625 C 341.3744201660156 5.35235595703125 328.2604370117188 7.353759765625 315.4477233886719 9.97564697265625 C 290.2437438964844 15.13311767578125 265.4522094726562 22.828857421875 241.7619018554688 32.84893798828125 C 218.501220703125 42.68743896484375 196.0661010742188 54.86480712890625 175.079833984375 69.0428466796875 C 154.2923583984375 83.08660888671875 134.7447509765625 99.21490478515625 116.9798583984375 116.9798583984375 C 99.21490478515625 134.7447509765625 83.08660888671875 154.2923583984375 69.0428466796875 175.079833984375 C 54.86480712890625 196.0661010742188 42.68743896484375 218.501220703125 32.84893798828125 241.7619018554688 C 22.828857421875 265.4522094726562 15.13311767578125 290.2437438964844 9.97564697265625 315.4477233886719 C 7.353759765625 328.2604370117188 5.35235595703125 341.3744201660156 4.02691650390625 354.425537109375 C 2.68194580078125 367.6687316894531 2 381.173828125 2 394.5654296875 C 2 407.9571228027344 2.68194580078125 421.4621276855469 4.02691650390625 434.7054443359375 C 5.35235595703125 447.7564392089844 7.353759765625 460.8704223632812 9.97564697265625 473.6832275390625 C 15.13311767578125 498.8872375488281 22.828857421875 523.6787109375 32.84893798828125 547.3690185546875 C 42.68743896484375 570.6297607421875 54.86480712890625 593.0648193359375 69.0428466796875 614.0511474609375 C 83.08660888671875 634.8385009765625 99.21490478515625 654.38623046875 116.9798583984375 672.151123046875 C 134.7447509765625 689.916015625 154.2923583984375 706.0443115234375 175.079833984375 720.0880126953125 C 196.0661010742188 734.26611328125 218.501220703125 746.4435424804688 241.7619018554688 756.2819213867188 C 265.4522094726562 766.302001953125 290.2437438964844 773.9977416992188 315.4477233886719 779.1552124023438 C 328.2604370117188 781.777099609375 341.3744201660156 783.7785034179688 354.425537109375 785.1039428710938 C 367.6687316894531 786.4489135742188 381.173828125 787.130859375 394.5654296875 787.130859375 C 407.9571228027344 787.130859375 421.4621276855469 786.4489135742188 434.7054443359375 785.1039428710938 C 447.7564392089844 783.7785034179688 460.8704223632812 781.777099609375 473.6832275390625 779.1552124023438 C 498.8872375488281 773.9977416992188 523.6787109375 766.302001953125 547.3690185546875 756.2819213867188 C 570.6297607421875 746.4435424804688 593.0648193359375 734.26611328125 614.0511474609375 720.0880126953125 C 634.8385009765625 706.0443115234375 654.38623046875 689.916015625 672.151123046875 672.151123046875 C 689.916015625 654.38623046875 706.0443115234375 634.8385009765625 720.0880126953125 614.0511474609375 C 734.26611328125 593.0648193359375 746.4435424804688 570.6297607421875 756.2819213867188 547.3690185546875 C 766.302001953125 523.6787109375 773.9977416992188 498.8872375488281 779.1552124023438 473.6832275390625 C 781.777099609375 460.8704223632812 783.7785034179688 447.7564392089844 785.1039428710938 434.7054443359375 C 786.4489135742188 421.4621276855469 787.130859375 407.9571228027344 787.130859375 394.5654296875 C 787.130859375 381.173828125 786.4489135742188 367.6687316894531 785.1039428710938 354.425537109375 C 783.7785034179688 341.3744201660156 781.777099609375 328.2604370117188 779.1552124023438 315.4477233886719 C 773.9977416992188 290.2437438964844 766.302001953125 265.4522094726562 756.2819213867188 241.7619018554688 C 746.4435424804688 218.501220703125 734.26611328125 196.0661010742188 720.0880126953125 175.079833984375 C 706.0443115234375 154.2923583984375 689.916015625 134.7447509765625 672.151123046875 116.9798583984375 C 654.38623046875 99.21490478515625 634.8385009765625 83.08660888671875 614.0511474609375 69.0428466796875 C 593.0648193359375 54.86480712890625 570.6297607421875 42.68743896484375 547.3690185546875 32.84893798828125 C 523.6787109375 22.828857421875 498.8872375488281 15.13311767578125 473.6832275390625 9.97564697265625 C 460.8704223632812 7.353759765625 447.7564392089844 5.35235595703125 434.7054443359375 4.02691650390625 C 421.4621276855469 2.68194580078125 407.9571228027344 2 394.5654296875 2 M 394.5654296875 0 C 612.4779052734375 0 789.130859375 176.6530151367188 789.130859375 394.5654296875 C 789.130859375 612.4779052734375 612.4779052734375 789.130859375 394.5654296875 789.130859375 C 176.6530151367188 789.130859375 0 612.4779052734375 0 394.5654296875 C 0 176.6530151367188 176.6530151367188 0 394.5654296875 0 Z" stroke="none" fill="#01b5b7"/>
  </g>
</svg>
