<svg xmlns="http://www.w3.org/2000/svg" width="64" height="64" viewBox="0 0 64 64">
  <g id="Path_545" data-name="Path 545" transform="translate(8 8)" fill="none">
    <path d="M24,0A24,24,0,1,1,0,24,24,24,0,0,1,24,0Z" stroke="none"/>
    <path d="M 24 2 C 21.02914047241211 2 18.1481990814209 2.581401824951172 15.43722152709961 3.728050231933594 C 12.81771850585938 4.836009979248047 10.46474075317383 6.422561645507812 8.443649291992188 8.443649291992188 C 6.422561645507812 10.46474075317383 4.836009979248047 12.81771850585938 3.728050231933594 15.43722152709961 C 2.581401824951172 18.1481990814209 2 21.02914047241211 2 24 C 2 26.97085952758789 2.581401824951172 29.8518009185791 3.728050231933594 32.56278228759766 C 4.836009979248047 35.18228149414062 6.422561645507812 37.53525924682617 8.443649291992188 39.55635070800781 C 10.46474075317383 41.57743835449219 12.81771850585938 43.16399002075195 15.43722152709961 44.27194976806641 C 18.1481990814209 45.41860198974609 21.02914047241211 46 24 46 C 26.97085952758789 46 29.8518009185791 45.41860198974609 32.56278228759766 44.27194976806641 C 35.18228149414062 43.16399002075195 37.53525924682617 41.57743835449219 39.55635070800781 39.55635070800781 C 41.57743835449219 37.53525924682617 43.16399002075195 35.18228149414062 44.27194976806641 32.56278228759766 C 45.41860198974609 29.8518009185791 46 26.97085952758789 46 24 C 46 21.02914047241211 45.41860198974609 18.1481990814209 44.27194976806641 15.43722152709961 C 43.16399002075195 12.81771850585938 41.57743835449219 10.46474075317383 39.55635070800781 8.443649291992188 C 37.53525924682617 6.422561645507812 35.18228149414062 4.836009979248047 32.56278228759766 3.728050231933594 C 29.8518009185791 2.581401824951172 26.97085952758789 2 24 2 M 24 0 C 37.25482940673828 0 48 10.74517059326172 48 24 C 48 37.25482940673828 37.25482940673828 48 24 48 C 10.74517059326172 48 0 37.25482940673828 0 24 C 0 10.74517059326172 10.74517059326172 0 24 0 Z" stroke="none" fill="#8cc800"/>
  </g>
  <g id="Path_546" data-name="Path 546" fill="none">
    <path d="M32,0A32,32,0,1,1,0,32,32,32,0,0,1,32,0Z" stroke="none"/>
    <path d="M 32 2 C 27.94915008544922 2 24.0205192565918 2.792919158935547 20.32326126098633 4.356731414794922 C 16.75112152099609 5.867618560791016 13.5425910949707 8.030998229980469 10.78680038452148 10.78680038452148 C 8.030998229980469 13.5425910949707 5.867618560791016 16.75112152099609 4.356731414794922 20.32326126098633 C 2.792919158935547 24.0205192565918 2 27.94915008544922 2 32 C 2 36.05084991455078 2.792919158935547 39.9794807434082 4.356731414794922 43.67674255371094 C 5.867618560791016 47.24887847900391 8.030998229980469 50.4574089050293 10.78680038452148 53.21319961547852 C 13.5425910949707 55.96900177001953 16.75112152099609 58.13238143920898 20.32326126098633 59.64326858520508 C 24.0205192565918 61.20708084106445 27.94915008544922 62 32 62 C 36.05084991455078 62 39.9794807434082 61.20708084106445 43.67674255371094 59.64326858520508 C 47.24887847900391 58.13238143920898 50.4574089050293 55.96900177001953 53.21319961547852 53.21319961547852 C 55.96900177001953 50.4574089050293 58.13238143920898 47.24887847900391 59.64326858520508 43.67674255371094 C 61.20708084106445 39.9794807434082 62 36.05084991455078 62 32 C 62 27.94915008544922 61.20708084106445 24.0205192565918 59.64326858520508 20.32326126098633 C 58.13238143920898 16.75112152099609 55.96900177001953 13.5425910949707 53.21319961547852 10.78680038452148 C 50.4574089050293 8.030998229980469 47.24887847900391 5.867618560791016 43.67674255371094 4.356731414794922 C 39.9794807434082 2.792919158935547 36.05084991455078 2 32 2 M 32 0 C 49.67311096191406 0 64 14.32688903808594 64 32 C 64 49.67311096191406 49.67311096191406 64 32 64 C 14.32688903808594 64 0 49.67311096191406 0 32 C 0 14.32688903808594 14.32688903808594 0 32 0 Z" stroke="none" fill="#8cc800"/>
  </g>
</svg>
